<svg width="20" height="18" viewBox="0 0 20 18" fill="none" xmlns="http://www.w3.org/2000/svg">
<path d="M4.56897 17.9704C3.81915 17.8736 3.16465 17.6525 2.5398 17.2818C1.2901 16.5385 0.383536 15.2855 0.108178 13.9167C0.0170981 13.4619 -0.00196512 13.2787 0.000153017 12.7796C0.00227115 12.4026 0.0107438 12.2447 0.0488702 12.0025C0.190785 11.0739 0.506387 10.3263 1.07617 9.5682C1.24138 9.34708 1.77515 8.80799 5.25948 5.34181C9.72663 0.898519 9.32842 1.26704 9.67579 1.24598C10.038 1.22282 10.2943 1.36812 10.4193 1.66504C10.4637 1.77454 10.4637 2.14517 10.4171 2.28415C10.3854 2.37891 10.0655 2.7011 6.33338 6.41999C1.9912 10.7454 2.16277 10.5664 1.88953 11.0528C1.54851 11.6614 1.37059 12.4448 1.42778 13.087C1.48073 13.6914 1.65865 14.2537 1.94672 14.7275C2.51438 15.6603 3.41459 16.2963 4.50331 16.5322C4.6897 16.5722 4.78714 16.5785 5.17688 16.5806C5.57297 16.5806 5.66193 16.5743 5.86527 16.5322C6.4647 16.4079 7.0133 16.1552 7.49623 15.7867C7.59579 15.7109 9.79229 13.544 12.8149 10.539C16.8817 6.49369 17.9874 5.38603 18.0742 5.25547C18.5741 4.52054 18.6376 3.63398 18.2437 2.85483C18.0615 2.49895 17.8052 2.18939 17.4938 1.95775C17.2968 1.81034 16.9283 1.63345 16.6678 1.56185C16.475 1.5071 16.4263 1.50289 16.1065 1.505C15.7993 1.505 15.7315 1.51342 15.5557 1.55975C15.4456 1.58923 15.2677 1.6524 15.1596 1.69663C14.717 1.88826 14.969 1.6503 10.4976 6.09148C8.24605 8.32787 6.36939 10.2042 6.32702 10.2589C6.14275 10.5053 6.06861 10.838 6.14063 11.0844C6.20205 11.2971 6.29525 11.4529 6.45623 11.613C6.73371 11.8888 7.08532 11.9962 7.40304 11.9036C7.70381 11.8151 7.57884 11.9309 10.451 9.08386C13.4927 6.06621 13.2004 6.32523 13.5859 6.32523C13.7786 6.32523 13.8231 6.33155 13.9142 6.37787C14.054 6.44526 14.1705 6.5674 14.2404 6.7127C14.2891 6.81588 14.2954 6.8559 14.2954 7.05384C14.2954 7.26021 14.2912 7.28338 14.2319 7.39499C14.1811 7.48975 13.6537 8.02463 11.5101 10.162C9.63979 12.0278 8.80524 12.847 8.69298 12.9249C8.38161 13.1418 8.01094 13.2955 7.62544 13.3608C7.33314 13.4113 6.78242 13.3924 6.50495 13.3187C5.52637 13.066 4.78502 12.251 4.64946 11.276C4.59439 10.8928 4.63463 10.4084 4.74689 10.0631C4.81891 9.83985 4.98624 9.50923 5.11545 9.33656C5.27431 9.12387 13.463 0.98907 13.6918 0.814286C14.844 -0.0554191 16.3649 -0.242837 17.7078 0.321523C18.6736 0.727947 19.4849 1.60186 19.809 2.58739C19.9636 3.05488 20.0123 3.43183 19.9975 4.02356C19.989 4.39629 19.9784 4.51632 19.9318 4.72691C19.7878 5.39867 19.4891 5.9883 19.0337 6.49369C18.9278 6.60951 16.5809 8.95119 13.8167 11.6972C10.2922 15.1971 8.72263 16.7427 8.56589 16.867C7.57037 17.6482 6.50706 18.0062 5.20865 17.9999C4.97565 17.9978 4.68759 17.9852 4.56897 17.9704Z" fill="#A7947F"/>
<path d="M4.56897 17.9704C3.81915 17.8736 3.16465 17.6525 2.5398 17.2818C1.2901 16.5385 0.383536 15.2855 0.108178 13.9167C0.0170981 13.4619 -0.00196512 13.2787 0.000153017 12.7796C0.00227115 12.4026 0.0107438 12.2447 0.0488702 12.0025C0.190785 11.0739 0.506387 10.3263 1.07617 9.5682C1.24138 9.34708 1.77515 8.80799 5.25948 5.34181C9.72663 0.898519 9.32842 1.26704 9.67579 1.24598C10.038 1.22282 10.2943 1.36812 10.4193 1.66504C10.4637 1.77454 10.4637 2.14517 10.4171 2.28415C10.3854 2.37891 10.0655 2.7011 6.33338 6.41999C1.9912 10.7454 2.16277 10.5664 1.88953 11.0528C1.54851 11.6614 1.37059 12.4448 1.42778 13.087C1.48073 13.6914 1.65865 14.2537 1.94672 14.7275C2.51438 15.6603 3.41459 16.2963 4.50331 16.5322C4.6897 16.5722 4.78714 16.5785 5.17688 16.5806C5.57297 16.5806 5.66193 16.5743 5.86527 16.5322C6.4647 16.4079 7.0133 16.1552 7.49623 15.7867C7.59579 15.7109 9.79229 13.544 12.8149 10.539C16.8817 6.49369 17.9874 5.38603 18.0742 5.25547C18.5741 4.52054 18.6376 3.63398 18.2437 2.85483C18.0615 2.49895 17.8052 2.18939 17.4938 1.95775C17.2968 1.81034 16.9283 1.63345 16.6678 1.56185C16.475 1.5071 16.4263 1.50289 16.1065 1.505C15.7993 1.505 15.7315 1.51342 15.5557 1.55975C15.4456 1.58923 15.2677 1.6524 15.1596 1.69663C14.717 1.88826 14.969 1.6503 10.4976 6.09148C8.24605 8.32787 6.36939 10.2042 6.32702 10.2589C6.14275 10.5053 6.06861 10.838 6.14063 11.0844C6.20205 11.2971 6.29525 11.4529 6.45623 11.613C6.73371 11.8888 7.08532 11.9962 7.40304 11.9036C7.70381 11.8151 7.57884 11.9309 10.451 9.08386C13.4927 6.06621 13.2004 6.32523 13.5859 6.32523C13.7786 6.32523 13.8231 6.33155 13.9142 6.37787C14.054 6.44526 14.1705 6.5674 14.2404 6.7127C14.2891 6.81588 14.2954 6.8559 14.2954 7.05384C14.2954 7.26021 14.2912 7.28338 14.2319 7.39499C14.1811 7.48975 13.6537 8.02463 11.5101 10.162C9.63979 12.0278 8.80524 12.847 8.69298 12.9249C8.38161 13.1418 8.01094 13.2955 7.62544 13.3608C7.33314 13.4113 6.78242 13.3924 6.50495 13.3187C5.52637 13.066 4.78502 12.251 4.64946 11.276C4.59439 10.8928 4.63463 10.4084 4.74689 10.0631C4.81891 9.83985 4.98624 9.50923 5.11545 9.33656C5.27431 9.12387 13.463 0.98907 13.6918 0.814286C14.844 -0.0554191 16.3649 -0.242837 17.7078 0.321523C18.6736 0.727947 19.4849 1.60186 19.809 2.58739C19.9636 3.05488 20.0123 3.43183 19.9975 4.02356C19.989 4.39629 19.9784 4.51632 19.9318 4.72691C19.7878 5.39867 19.4891 5.9883 19.0337 6.49369C18.9278 6.60951 16.5809 8.95119 13.8167 11.6972C10.2922 15.1971 8.72263 16.7427 8.56589 16.867C7.57037 17.6482 6.50706 18.0062 5.20865 17.9999C4.97565 17.9978 4.68759 17.9852 4.56897 17.9704Z" fill="#B9AA98"/>
</svg>
