<svg width="20" height="20" viewBox="0 0 20 20" fill="none" xmlns="http://www.w3.org/2000/svg">
<path d="M10.0031 2.38149e-07C8.2765 -0.000376501 6.57918 0.446239 5.07637 1.29637C3.57357 2.14651 2.31649 3.3712 1.42749 4.85125C0.538481 6.3313 0.0478427 8.01627 0.00332527 9.74217C-0.0411921 11.4681 0.361928 13.1761 1.17345 14.7L0.0819983 17.974C-0.00840978 18.2451 -0.0215301 18.536 0.0441079 18.8141C0.109746 19.0922 0.251548 19.3466 0.453622 19.5486C0.655695 19.7507 0.910053 19.8924 1.18819 19.9581C1.46632 20.0237 1.75724 20.0106 2.02834 19.9202L5.30269 18.8288C6.64394 19.5422 8.13009 19.9406 9.64833 19.9938C11.1666 20.0471 12.677 19.7538 14.0649 19.1363C15.4529 18.5187 16.6819 17.5931 17.6587 16.4297C18.6355 15.2663 19.3343 13.8957 19.7023 12.4219C20.0702 10.9481 20.0975 9.40981 19.7821 7.92388C19.4667 6.43795 18.8169 5.0434 17.882 3.84607C16.9471 2.64875 15.7517 1.68012 14.3865 1.01371C13.0214 0.347297 11.5223 0.000623298 10.0031 2.38149e-07ZM10.0031 18.4615C8.51548 18.4626 7.05392 18.0708 5.7662 17.326C5.67192 17.2713 5.56709 17.2373 5.45867 17.2262C5.35025 17.2151 5.2407 17.2271 5.13729 17.2615L1.54079 18.4615L2.73995 14.8654C2.77451 14.7621 2.78673 14.6526 2.77579 14.5441C2.76485 14.4357 2.731 14.3309 2.67648 14.2365C1.74367 12.624 1.36915 10.7486 1.61102 8.9015C1.85289 7.05437 2.69763 5.33867 4.01419 4.02057C5.33075 2.70247 7.04555 1.85564 8.89255 1.61146C10.7396 1.36728 12.6155 1.7394 14.2294 2.67008C15.8434 3.60076 17.105 5.03799 17.8187 6.7588C18.5323 8.47961 18.6581 10.3878 18.1765 12.1874C17.6948 13.987 16.6327 15.5773 15.1549 16.7117C13.6771 17.8462 11.8662 18.4612 10.0031 18.4615Z" fill="#B9AA98"/>
</svg>
