<svg width="12" height="18" viewBox="0 0 12 18" fill="none" xmlns="http://www.w3.org/2000/svg">
<path d="M4.35773 14.625C3.90712 14.625 3.52273 14.4598 3.20455 14.1293C2.88636 13.7988 2.72727 13.4016 2.72727 12.9375V11.3672C1.86364 10.7844 1.19318 10.0371 0.715909 9.12539C0.238636 8.21367 0 7.23438 0 6.1875C0 4.46391 0.581667 3.00172 1.745 1.80094C2.90833 0.600313 4.325 0 5.995 0C7.665 0 9.08333 0.600313 10.25 1.80094C11.4167 3.00172 12 4.46391 12 6.1875C12 7.23156 11.7614 8.21133 11.2841 9.1268C10.8068 10.0423 10.1364 10.7891 9.27273 11.3672V12.9375C9.27273 13.4016 9.11227 13.7988 8.79136 14.1293C8.47061 14.4598 8.08492 14.625 7.63432 14.625H4.35773ZM4.36364 12.9375H7.63636V10.4531L8.38636 9.96094C9.00758 9.55469 9.49242 9.01422 9.84091 8.33953C10.1894 7.66484 10.3636 6.9475 10.3636 6.1875C10.3636 4.9425 9.93765 3.88125 9.08568 3.00375C8.23386 2.12625 7.20356 1.6875 5.99477 1.6875C4.78614 1.6875 3.75758 2.12625 2.90909 3.00375C2.06061 3.88125 1.63636 4.9425 1.63636 6.1875C1.63636 6.9475 1.81061 7.66484 2.15909 8.33953C2.50758 9.01422 2.99242 9.55469 3.61364 9.96094L4.36364 10.4531V12.9375ZM4.36364 18C4.05455 18 3.79545 17.8922 3.58636 17.6766C3.37727 17.4609 3.27273 17.1938 3.27273 16.875V16.3125H8.72727V16.875C8.72727 17.1938 8.62273 17.4609 8.41364 17.6766C8.20455 17.8922 7.94545 18 7.63636 18H4.36364Z" fill="#C89968"/>
</svg>
