<svg width="30" height="30" viewBox="0 0 30 30" fill="none" xmlns="http://www.w3.org/2000/svg">
<path d="M15.0972 27C13.4203 27 11.8482 26.6806 10.3809 26.0419C8.91385 25.4031 7.63625 24.5398 6.54812 23.4519C5.46021 22.3638 4.59688 21.0861 3.95813 19.6191C3.31938 18.1518 3 16.5797 3 14.9028C3 11.9884 3.91667 9.41146 5.75 7.17188C7.58333 4.93229 9.95833 3.54167 12.875 3C12.5208 5.0625 12.6406 7.02083 13.2344 8.875C13.8281 10.7292 14.8438 12.375 16.2812 13.8125C17.6771 15.2083 19.3229 16.1979 21.2188 16.7812C23.1146 17.3646 25.0417 17.4792 27 17.125C26.5 20 25.1198 22.3646 22.8594 24.2188C20.599 26.0729 18.0116 27 15.0972 27ZM15.0938 24.75C16.9271 24.75 18.6354 24.2812 20.2188 23.3438C21.8021 22.4062 23 21.1354 23.8125 19.5312C22.0833 19.4271 20.4323 19.0156 18.8594 18.2969C17.2865 17.5781 15.8854 16.6042 14.6562 15.375C13.4062 14.125 12.4271 12.7188 11.7188 11.1562C11.0104 9.59375 10.5938 7.9375 10.4688 6.1875C8.86458 7.04167 7.59375 8.25187 6.65625 9.81812C5.71875 11.3846 5.25 13.0806 5.25 14.9062C5.25 17.6406 6.20708 19.9648 8.12125 21.8787C10.0352 23.7929 12.3594 24.75 15.0938 24.75Z" fill="#C89968"/>
</svg>
