<svg width="18" height="18" viewBox="0 0 18 18" fill="none" xmlns="http://www.w3.org/2000/svg">
<path d="M0 7.875C0 6.5 0.277344 5.23438 0.832031 4.07812C1.38672 2.92188 2.15625 1.92188 3.14062 1.07812L4.33594 2.25C3.52344 2.92188 2.87891 3.74609 2.40234 4.72266C1.92578 5.69922 1.6875 6.75 1.6875 7.875H0ZM16.3125 7.875C16.3125 6.73438 16.0742 5.67578 15.5977 4.69922C15.1211 3.72266 14.4688 2.89844 13.6406 2.22656L14.8594 1.03125C15.8281 1.85938 16.5938 2.86328 17.1562 4.04297C17.7188 5.22266 18 6.5 18 7.875H16.3125ZM2.25 15.1875V13.5H3.375V7.875C3.375 6.51562 3.79297 5.32031 4.62891 4.28906C5.46484 3.25781 6.54688 2.61719 7.875 2.36719V1.125C7.875 0.8125 7.98438 0.546875 8.20312 0.328125C8.42188 0.109375 8.6875 0 9 0C9.3125 0 9.57812 0.109375 9.79688 0.328125C10.0156 0.546875 10.125 0.8125 10.125 1.125V2.36719C11.4531 2.61719 12.5352 3.25781 13.3711 4.28906C14.207 5.32031 14.625 6.51562 14.625 7.875V13.5H15.75V15.1875H2.25ZM9 18C8.53125 18 8.13281 17.8359 7.80469 17.5078C7.47656 17.1797 7.3125 16.7812 7.3125 16.3125H10.6875C10.6875 16.7812 10.5234 17.1797 10.1953 17.5078C9.86719 17.8359 9.46875 18 9 18ZM5.0625 13.5H12.9375V7.875C12.9375 6.78125 12.5547 5.85156 11.7891 5.08594C11.0234 4.32031 10.0938 3.9375 9 3.9375C7.90625 3.9375 6.97656 4.32031 6.21094 5.08594C5.44531 5.85156 5.0625 6.78125 5.0625 7.875V13.5Z" fill="#C89968"/>
</svg>
