<svg width="20" height="20" viewBox="0 0 20 20" fill="none" xmlns="http://www.w3.org/2000/svg">
<path d="M16.6778 19L10.7278 13.05C10.2556 13.4278 9.7125 13.7269 9.09861 13.9472C8.48472 14.1676 7.83148 14.2778 7.13889 14.2778C5.42315 14.2778 3.97106 13.6836 2.78264 12.4951C1.59421 11.3067 1 9.85463 1 8.13889C1 6.42315 1.59421 4.97106 2.78264 3.78264C3.97106 2.59421 5.42315 2 7.13889 2C8.85463 2 10.3067 2.59421 11.4951 3.78264C12.6836 4.97106 13.2778 6.42315 13.2778 8.13889C13.2778 8.83148 13.1676 9.48472 12.9472 10.0986C12.7269 10.7125 12.4278 11.2556 12.05 11.7278L18 17.6778L16.6778 19ZM7.13889 12.3889C8.31944 12.3889 9.32292 11.9757 10.1493 11.1493C10.9757 10.3229 11.3889 9.31944 11.3889 8.13889C11.3889 6.95833 10.9757 5.95486 10.1493 5.12847C9.32292 4.30208 8.31944 3.88889 7.13889 3.88889C5.95833 3.88889 4.95486 4.30208 4.12847 5.12847C3.30208 5.95486 2.88889 6.95833 2.88889 8.13889C2.88889 9.31944 3.30208 10.3229 4.12847 11.1493C4.95486 11.9757 5.95833 12.3889 7.13889 12.3889Z" fill="#C89968"/>
</svg>
