<svg width="14" height="19" viewBox="0 0 14 19" fill="none" xmlns="http://www.w3.org/2000/svg">
<path d="M0 16.0312V14.25H1.16667V8.3125C1.16667 6.8776 1.60012 5.61589 2.46701 4.52734C3.33391 3.4388 4.45602 2.76259 5.83333 2.4987V1.1875C5.83333 0.857639 5.94676 0.577257 6.17361 0.346354C6.40046 0.115451 6.67593 0 7 0C7.32407 0 7.59954 0.115451 7.82639 0.346354C8.05324 0.577257 8.16667 0.857639 8.16667 1.1875V2.4987C9.54398 2.76259 10.6661 3.4388 11.533 4.52734C12.3999 5.61589 12.8333 6.8776 12.8333 8.3125V14.25H14V16.0312H0ZM6.9949 19C6.51219 19 6.10069 18.8256 5.76042 18.4768C5.42014 18.1279 5.25 17.7086 5.25 17.2188H8.75C8.75 17.7135 8.57816 18.1341 8.23448 18.4805C7.8908 18.8268 7.4776 19 6.9949 19ZM2.91667 14.25H11.0833V8.3125C11.0833 7.15799 10.6863 6.17665 9.89236 5.36849C9.09838 4.56033 8.13426 4.15625 7 4.15625C5.86574 4.15625 4.90162 4.56033 4.10764 5.36849C3.31366 6.17665 2.91667 7.15799 2.91667 8.3125V14.25Z" fill="#C89968"/>
</svg>
