<svg width="30" height="30" viewBox="0 0 30 30" fill="none" xmlns="http://www.w3.org/2000/svg">
<path d="M13.875 6V1.5H16.125V6H13.875ZM22.1562 9.5L20.4688 7.875L23.7188 4.6875L25.3438 6.25L22.1562 9.5ZM24 16.125V13.875H28.5V16.125H24ZM13.875 28.5V24H16.125V28.5H13.875ZM7.84375 9.4375L4.59375 6.25L6.28125 4.6875L9.4375 7.84375L7.84375 9.4375ZM23.75 25.4062L20.5938 22.125L22.1562 20.5625L25.4062 23.6875L23.75 25.4062ZM1.5 16.125V13.875H6V16.125H1.5ZM6.25 25.4062L4.65625 23.75L7.84375 20.625L8.625 21.375L9.375 22.1562L6.25 25.4062ZM9.6875 20.3125C8.22917 18.8542 7.5 17.0833 7.5 15C7.5 12.9167 8.22917 11.1458 9.6875 9.6875C11.1458 8.22917 12.9167 7.5 15 7.5C17.0833 7.5 18.8542 8.22917 20.3125 9.6875C21.7708 11.1458 22.5 12.9167 22.5 15C22.5 17.0833 21.7708 18.8542 20.3125 20.3125C18.8542 21.7708 17.0833 22.5 15 22.5C12.9167 22.5 11.1458 21.7708 9.6875 20.3125ZM18.7188 18.7188C19.7396 17.6979 20.25 16.4583 20.25 15C20.25 13.5417 19.7396 12.3021 18.7188 11.2812C17.6979 10.2604 16.4583 9.75 15 9.75C13.5417 9.75 12.3021 10.2604 11.2812 11.2812C10.2604 12.3021 9.75 13.5417 9.75 15C9.75 16.4583 10.2604 17.6979 11.2812 18.7188C12.3021 19.7396 13.5417 20.25 15 20.25C16.4583 20.25 17.6979 19.7396 18.7188 18.7188Z" fill="#C89968"/>
</svg>
