<svg width="20" height="20" viewBox="0 0 20 20" fill="none" xmlns="http://www.w3.org/2000/svg">
<path d="M17.1522 8.06875C16.7087 8.4625 16.1995 8.76146 15.6246 8.96562C15.0498 9.16979 14.4749 9.27187 13.9 9.27187C13.3251 9.27187 12.7585 9.17344 12.2 8.97656C11.6415 8.77969 11.1406 8.47708 10.6971 8.06875L8.84928 6.42812C8.6029 6.20937 8.32367 6.04531 8.01159 5.93594C7.69952 5.82656 7.37923 5.77188 7.05072 5.77188C6.72222 5.77188 6.40193 5.82656 6.08986 5.93594C5.77778 6.04531 5.49855 6.20937 5.25217 6.42812L3.40435 8.06875L2 6.82187L3.84783 5.18125C4.2913 4.7875 4.79227 4.49219 5.35072 4.29531C5.90918 4.09844 6.47585 4 7.05072 4C7.6256 4 8.18816 4.09844 8.73841 4.29531C9.28865 4.49219 9.78551 4.7875 10.229 5.18125L12.0768 6.82187C12.3396 7.05521 12.6271 7.22656 12.9391 7.33594C13.2512 7.44531 13.5715 7.5 13.9 7.5C14.2285 7.5 14.5529 7.44531 14.8732 7.33594C15.1935 7.22656 15.485 7.05521 15.7478 6.82187L17.5957 5.18125L19 6.42812L17.1522 8.06875ZM17.1522 12.4437C16.7087 12.8375 16.2036 13.1328 15.637 13.3297C15.0703 13.5266 14.4995 13.625 13.9246 13.625C13.3498 13.625 12.779 13.5266 12.2123 13.3297C11.6457 13.1328 11.1406 12.8375 10.6971 12.4437L8.84928 10.8031C8.6029 10.5844 8.32367 10.4203 8.01159 10.3109C7.69952 10.2016 7.37923 10.1469 7.05072 10.1469C6.72222 10.1469 6.40193 10.2016 6.08986 10.3109C5.77778 10.4203 5.49855 10.5844 5.25217 10.8031L3.40435 12.4437L2 11.2188L3.84783 9.55625C4.2913 9.1625 4.79227 8.86719 5.35072 8.67031C5.90918 8.47344 6.47585 8.375 7.05072 8.375C7.6256 8.375 8.18816 8.47344 8.73841 8.67031C9.28865 8.86719 9.78551 9.1625 10.229 9.55625L12.0768 11.1969C12.3396 11.4302 12.6271 11.6016 12.9391 11.7109C13.2512 11.8203 13.5715 11.875 13.9 11.875C14.2285 11.875 14.5529 11.8203 14.8732 11.7109C15.1935 11.6016 15.485 11.4302 15.7478 11.1969L17.5957 9.55625L19 10.8031L17.1522 12.4437ZM17.1275 16.8187C16.6841 17.2125 16.1831 17.5078 15.6246 17.7047C15.0662 17.9016 14.4995 18 13.9246 18C13.3498 18 12.779 17.9016 12.2123 17.7047C11.6457 17.5078 11.1406 17.2125 10.6971 16.8187L8.82464 15.1781C8.57826 14.9594 8.29903 14.7953 7.98696 14.6859C7.67488 14.5766 7.35459 14.5219 7.02609 14.5219C6.69758 14.5219 6.37729 14.5766 6.06522 14.6859C5.75314 14.7953 5.47391 14.9594 5.22754 15.1781L3.37971 16.8187L2 15.5938L3.84783 13.9312C4.2913 13.5375 4.79227 13.2422 5.35072 13.0453C5.90918 12.8484 6.47585 12.75 7.05072 12.75C7.6256 12.75 8.18816 12.8484 8.73841 13.0453C9.28865 13.2422 9.78551 13.5375 10.229 13.9312L12.0768 15.5719C12.3396 15.8052 12.6312 15.9766 12.9514 16.0859C13.2717 16.1953 13.5961 16.25 13.9246 16.25C14.2531 16.25 14.5734 16.1953 14.8855 16.0859C15.1976 15.9766 15.485 15.8052 15.7478 15.5719L17.5957 13.9312L18.9754 15.1781L17.1275 16.8187Z" fill="#C89968"/>
</svg>
