<svg width="20" height="20" viewBox="0 0 20 20" fill="none" xmlns="http://www.w3.org/2000/svg">
<path d="M13.5556 8.19995C13.5556 9.15473 13.181 10.0704 12.5142 10.7455C11.8474 11.4207 10.943 11.8 10 11.8C9.05702 11.8 8.15265 11.4207 7.48586 10.7455C6.81906 10.0704 6.44446 9.15473 6.44446 8.19995" stroke="#B9AA98" stroke-width="1.6" stroke-linecap="round" stroke-linejoin="round"/>
<path d="M2.13723 4.6001H17.8304" stroke="#B9AA98" stroke-width="1.6" stroke-linecap="round" stroke-linejoin="round"/>
<path d="M2.35556 4.1203C2.12476 4.43187 2 4.81083 2 5.2003V17.2C2 17.6774 2.1873 18.1352 2.5207 18.4728C2.8541 18.8104 3.30628 19 3.77778 19H16.2222C16.6937 19 17.1459 18.8104 17.4793 18.4728C17.8127 18.1352 18 17.6774 18 17.2V5.2003C18 4.81083 17.8752 4.43187 17.6444 4.1203L15.8667 1.72C15.7011 1.49645 15.4863 1.315 15.2395 1.19003C14.9926 1.06506 14.7204 1 14.4444 1H5.55556C5.27956 1 5.00736 1.06506 4.76051 1.19003C4.51365 1.315 4.29893 1.49645 4.13333 1.72L2.35556 4.1203Z" stroke="#B9AA98" stroke-width="1.6" stroke-linecap="round" stroke-linejoin="round"/>
</svg>
