<svg width="20" height="20" viewBox="0 0 20 20" fill="none" xmlns="http://www.w3.org/2000/svg">
<path d="M11.9408 19.9824C10.6696 19.8254 9.55556 18.7916 8.65414 16.9414C8.31822 16.2531 8.08138 15.6154 7.42163 13.6324L7.15338 12.8232L5.96195 12.4271C4.54094 11.9561 3.88844 11.7146 3.34227 11.4658C2.22093 10.9561 1.43793 10.4272 0.853088 9.7871C0.263418 9.14461 0 8.50937 0 7.73886C0 7.04565 0.169168 6.55291 0.621087 5.93458C1.22767 5.10369 2.37318 4.34043 3.96336 3.70519C4.50953 3.4878 13.589 0.44926 14.198 0.280184C14.9399 0.0748766 15.4523 0 16.1313 0C17.011 0 17.7094 0.171492 18.3184 0.531383C19.4954 1.23184 20.102 2.58687 19.986 4.25106C19.9352 4.99258 19.7975 5.59884 19.418 6.74614C18.2822 10.1977 16.4721 15.5743 16.3126 15.9753C16.0733 16.5791 15.6577 17.4269 15.4015 17.8351C14.7345 18.9003 13.9829 19.5815 13.1902 19.8471C12.7987 19.9776 12.3178 20.0307 11.9408 19.9824ZM12.6948 18.166C13.4053 17.8134 14.1352 16.7651 14.7514 15.2145C14.9689 14.6662 17.9656 5.69546 18.0864 5.22687C18.2363 4.65201 18.2798 4.367 18.2798 3.92257C18.2822 3.4081 18.2145 3.09168 18.0236 2.69314C17.8883 2.41055 17.5717 2.08688 17.2914 1.94679C16.6558 1.63038 15.9646 1.59656 14.9713 1.8381C14.6572 1.91539 6.58546 4.58438 5.36503 5.01674C4.07452 5.47324 3.21177 5.91043 2.54477 6.45147C2.0131 6.87899 1.68926 7.3669 1.68926 7.7292C1.68926 7.98523 1.86809 8.31614 2.1871 8.65188C2.58102 9.06491 3.07885 9.4103 3.80386 9.76536C4.41286 10.0649 4.8817 10.246 6.23504 10.7025L7.40713 11.0962L9.31631 9.19051C11.1336 7.37897 11.2327 7.28236 11.3657 7.23405C11.5372 7.17125 11.8683 7.164 12.0544 7.21956C12.2212 7.27028 12.4217 7.45385 12.4942 7.62293C12.6054 7.88137 12.5788 8.2944 12.4387 8.49971C12.4121 8.53835 11.5735 9.38857 10.5778 10.3885L8.7653 12.2025L9.21239 13.5406C9.72472 15.0671 9.89389 15.5115 10.2105 16.1565C10.6938 17.1419 11.298 17.8955 11.8176 18.1612C12.1511 18.3327 12.3589 18.3327 12.6948 18.166Z" fill="white"/>
<path d="M11.9408 19.9824C10.6696 19.8254 9.55556 18.7916 8.65414 16.9414C8.31822 16.2531 8.08138 15.6154 7.42163 13.6324L7.15338 12.8232L5.96195 12.4271C4.54094 11.9561 3.88844 11.7146 3.34227 11.4658C2.22093 10.9561 1.43793 10.4272 0.853088 9.7871C0.263418 9.14461 0 8.50937 0 7.73886C0 7.04565 0.169168 6.55291 0.621087 5.93458C1.22767 5.10369 2.37318 4.34043 3.96336 3.70519C4.50953 3.4878 13.589 0.44926 14.198 0.280184C14.9399 0.0748766 15.4523 0 16.1313 0C17.011 0 17.7094 0.171492 18.3184 0.531383C19.4954 1.23184 20.102 2.58687 19.986 4.25106C19.9352 4.99258 19.7975 5.59884 19.418 6.74614C18.2822 10.1977 16.4721 15.5743 16.3126 15.9753C16.0733 16.5791 15.6577 17.4269 15.4015 17.8351C14.7345 18.9003 13.9829 19.5815 13.1902 19.8471C12.7987 19.9776 12.3178 20.0307 11.9408 19.9824ZM12.6948 18.166C13.4053 17.8134 14.1352 16.7651 14.7514 15.2145C14.9689 14.6662 17.9656 5.69546 18.0864 5.22687C18.2363 4.65201 18.2798 4.367 18.2798 3.92257C18.2822 3.4081 18.2145 3.09168 18.0236 2.69314C17.8883 2.41055 17.5717 2.08688 17.2914 1.94679C16.6558 1.63038 15.9646 1.59656 14.9713 1.8381C14.6572 1.91539 6.58546 4.58438 5.36503 5.01674C4.07452 5.47324 3.21177 5.91043 2.54477 6.45147C2.0131 6.87899 1.68926 7.3669 1.68926 7.7292C1.68926 7.98523 1.86809 8.31614 2.1871 8.65188C2.58102 9.06491 3.07885 9.4103 3.80386 9.76536C4.41286 10.0649 4.8817 10.246 6.23504 10.7025L7.40713 11.0962L9.31631 9.19051C11.1336 7.37897 11.2327 7.28236 11.3657 7.23405C11.5372 7.17125 11.8683 7.164 12.0544 7.21956C12.2212 7.27028 12.4217 7.45385 12.4942 7.62293C12.6054 7.88137 12.5788 8.2944 12.4387 8.49971C12.4121 8.53835 11.5735 9.38857 10.5778 10.3885L8.7653 12.2025L9.21239 13.5406C9.72472 15.0671 9.89389 15.5115 10.2105 16.1565C10.6938 17.1419 11.298 17.8955 11.8176 18.1612C12.1511 18.3327 12.3589 18.3327 12.6948 18.166Z" fill="#C89968"/>
</svg>
