<svg width="6" height="12" viewBox="0 0 6 12" fill="none" xmlns="http://www.w3.org/2000/svg">
<path d="M0.853932 11.8402L5.85337 6.38589C5.89986 6.33523 5.93673 6.27508 5.96189 6.20887C5.98705 6.14265 6 6.07168 6 6C6 5.92832 5.98705 5.85735 5.96189 5.79113C5.93673 5.72492 5.89986 5.66477 5.85337 5.61411L0.853933 0.159841C0.760123 0.0574964 0.632889 2.76645e-08 0.500222 2.18654e-08C0.367555 1.60663e-08 0.240321 0.0574964 0.146511 0.159841C0.0527015 0.262185 -1.7528e-08 0.400994 -2.38546e-08 0.54573C-3.01813e-08 0.690467 0.0527015 0.829275 0.146511 0.93162L4.79287 6L0.146511 11.0684C0.100061 11.1191 0.0632149 11.1792 0.0380764 11.2454C0.0129379 11.3116 -4.97549e-07 11.3826 -5.00682e-07 11.4543C-5.03815e-07 11.5259 0.0129379 11.5969 0.0380764 11.6631C0.0632149 11.7293 0.100061 11.7895 0.146511 11.8402C0.192961 11.8908 0.248105 11.931 0.308795 11.9585C0.369485 11.9859 0.434531 12 0.500222 12C0.565912 12 0.630959 11.9859 0.691648 11.9585C0.752338 11.931 0.807482 11.8908 0.853932 11.8402Z" fill="#C4B5A0"/>
</svg>
