<svg width="24" height="24" viewBox="0 0 24 24" fill="none" xmlns="http://www.w3.org/2000/svg">
<path d="M2.992 16.1017C3.13904 16.4672 3.17177 16.8676 3.086 17.2516L2.021 20.4932C1.98668 20.6576 1.99555 20.8279 2.04677 20.988C2.09799 21.148 2.18986 21.2925 2.31366 21.4078C2.43747 21.5231 2.58911 21.6053 2.7542 21.6466C2.91929 21.688 3.09236 21.6871 3.257 21.644L6.67 20.6607C7.03771 20.5888 7.41852 20.6202 7.769 20.7513C9.90438 21.7339 12.3234 21.9418 14.5991 21.3383C16.8749 20.7348 18.8613 19.3588 20.2077 17.4529C21.5541 15.5471 22.1741 13.2339 21.9583 10.9216C21.7425 8.60925 20.7047 6.44631 19.0281 4.8144C17.3514 3.18248 15.1437 2.18646 12.7944 2.00207C10.4451 1.81768 8.10513 2.45677 6.18744 3.80658C4.26975 5.15639 2.89753 7.13018 2.31289 9.3797C1.72825 11.6292 1.96877 14.0099 2.992 16.1017Z" stroke="#8B7355" stroke-opacity="0.6" stroke-linecap="round" stroke-linejoin="round"/>
</svg>
