<svg width="21" height="21" viewBox="0 0 21 21" fill="none" xmlns="http://www.w3.org/2000/svg">
<path d="M10.09 0.0450439C11.6149 0.0450439 13.0972 0.565694 14.3098 1.52649C15.5223 2.48733 16.3977 3.83558 16.8019 5.3634C17.206 6.89112 17.117 8.51457 16.548 9.9845C15.9902 11.4256 15.0006 12.64 13.7277 13.4513C16.3325 14.3605 18.5626 16.2396 20.0148 18.8497C20.0715 18.9458 20.1099 19.053 20.1262 19.1642C20.1424 19.2754 20.1371 19.3891 20.1105 19.4982C20.0839 19.6072 20.0363 19.7101 19.9709 19.7999C19.9055 19.8897 19.8227 19.9651 19.7287 20.0216C19.6348 20.078 19.5308 20.114 19.423 20.1281C19.3152 20.1421 19.2054 20.1342 19.1008 20.1036C18.996 20.0729 18.8975 20.0198 18.8127 19.9493C18.7282 19.8791 18.6582 19.7921 18.6066 19.6935C16.8042 16.4546 13.6201 14.5226 10.09 14.5226C6.55979 14.5226 3.37576 16.4553 1.57343 19.6945L1.57245 19.6935C1.5209 19.7919 1.45173 19.8792 1.36737 19.9493C1.28253 20.0198 1.18403 20.0729 1.07928 20.1036C0.974685 20.1342 0.864881 20.1421 0.757019 20.1281C0.649237 20.114 0.545294 20.078 0.451355 20.0216C0.357324 19.9651 0.274551 19.8897 0.209167 19.7999C0.143777 19.7101 0.09613 19.6072 0.069519 19.4982C0.0429157 19.3891 0.0376426 19.2754 0.053894 19.1642C0.0701516 19.053 0.107602 18.9458 0.164246 18.8497C1.61635 16.2387 3.84679 14.3597 6.45135 13.4513C5.17881 12.64 4.18976 11.4253 3.63202 9.9845C3.06305 8.51457 2.97401 6.89112 3.37811 5.3634C3.78232 3.83558 4.6578 2.48733 5.8703 1.52649C7.08281 0.565694 8.56515 0.0450442 10.09 0.0450439ZM11.1301 1.8429C10.0957 1.62899 9.02346 1.73859 8.04901 2.15833C7.07469 2.57807 6.24177 3.28895 5.65546 4.20129C5.06908 5.1139 4.75604 6.18738 4.75604 7.28528C4.7576 8.75702 5.32025 10.168 6.3205 11.2081C7.32069 12.2481 8.6764 12.8325 10.09 12.8341C11.1447 12.8341 12.1757 12.509 13.0529 11.8995C13.9301 11.29 14.6138 10.4234 15.0178 9.4093C15.4217 8.39511 15.5274 7.27904 15.3215 6.20227C15.1155 5.12553 14.6077 4.13642 13.8615 3.36047C13.1154 2.58457 12.1645 2.05686 11.1301 1.8429Z" fill="#C89968" stroke="#C89968" stroke-width="0.09"/>
</svg>
