<svg width="17" height="17" viewBox="0 0 17 17" fill="none" xmlns="http://www.w3.org/2000/svg">
<path d="M11.8595 11.3333C12.3048 11.3603 12.7466 11.3367 13.1851 11.2625C13.6236 11.1883 14.0452 11.0635 14.45 10.8881C14.1667 12.6556 13.3504 14.1161 12.0012 15.2696C10.652 16.4232 9.08016 17 7.28571 17C6.27381 17 5.32599 16.8077 4.44226 16.4232C3.55853 16.0387 2.78948 15.5192 2.13512 14.8649C1.48075 14.2105 0.96131 13.4415 0.576786 12.5577C0.192262 11.674 0 10.7262 0 9.71429C0 7.91984 0.576786 6.34802 1.73036 4.99881C2.88393 3.6496 4.34444 2.83333 6.11191 2.55C5.93651 2.95476 5.81171 3.37639 5.7375 3.81488C5.66329 4.25337 5.63968 4.69524 5.66667 5.14048C4.69524 5.47778 3.9127 6.06468 3.31905 6.90119C2.7254 7.7377 2.42857 8.6754 2.42857 9.71429C2.42857 11.0635 2.90079 12.2103 3.84524 13.1548C4.78968 14.0992 5.93651 14.5714 7.28571 14.5714C8.3246 14.5714 9.2623 14.2746 10.0988 13.681C10.9353 13.0873 11.5222 12.3048 11.8595 11.3333ZM12.1429 0C13.4921 0 14.6389 0.472222 15.5833 1.41667C16.5278 2.36111 17 3.50794 17 4.85714C17 6.20635 16.5278 7.35317 15.5833 8.29762C14.6389 9.24206 13.4921 9.71429 12.1429 9.71429C10.7937 9.71429 9.64683 9.24206 8.70238 8.29762C7.75794 7.35317 7.28571 6.20635 7.28571 4.85714C7.28571 3.50794 7.75794 2.36111 8.70238 1.41667C9.64683 0.472222 10.7937 0 12.1429 0ZM12.1429 7.28571C12.8175 7.28571 13.3909 7.0496 13.8631 6.57738C14.3353 6.10516 14.5714 5.53175 14.5714 4.85714C14.5714 4.18254 14.3353 3.60913 13.8631 3.1369C13.3909 2.66468 12.8175 2.42857 12.1429 2.42857C11.4683 2.42857 10.8948 2.66468 10.4226 3.1369C9.9504 3.60913 9.71429 4.18254 9.71429 4.85714C9.71429 5.53175 9.9504 6.10516 10.4226 6.57738C10.8948 7.0496 11.4683 7.28571 12.1429 7.28571Z" fill="#C89968"/>
</svg>
