<svg width="23" height="23" viewBox="0 0 23 23" fill="none" xmlns="http://www.w3.org/2000/svg">
<path d="M2.24169 15.5916C2.38873 15.9625 2.42147 16.3689 2.33569 16.7586L1.27069 20.0486C1.23638 20.2154 1.24525 20.3882 1.29647 20.5507C1.34769 20.7131 1.43955 20.8598 1.56336 20.9768C1.68716 21.0938 1.8388 21.1772 2.00389 21.2192C2.16898 21.2611 2.34205 21.2602 2.50669 21.2165L5.91969 20.2186C6.2874 20.1456 6.66821 20.1775 7.01868 20.3106C9.15407 21.3078 11.573 21.5187 13.8488 20.9063C16.1246 20.2938 18.1109 18.8972 19.4574 16.9629C20.8038 15.0287 21.4238 12.681 21.208 10.3342C20.9921 7.98733 19.9544 5.79213 18.2777 4.13587C16.6011 2.47961 14.3934 1.46873 12.0441 1.28159C9.69474 1.09445 7.35482 1.74307 5.43713 3.11302C3.51944 4.48296 2.14722 6.4862 1.56258 8.76927C0.977947 11.0524 1.21846 13.4686 2.24169 15.5916Z" stroke="#C89968" stroke-width="2.5" stroke-linecap="round" stroke-linejoin="round"/>
</svg>
