<svg width="21" height="21" viewBox="0 0 21 21" fill="none" xmlns="http://www.w3.org/2000/svg">
<path d="M10.0729 0.03479C11.5974 0.0354153 13.1024 0.383627 14.4724 1.05237C15.842 1.72103 17.0412 2.69295 17.9792 3.89417C18.9173 5.09568 19.5699 6.49581 19.8864 7.98694C20.2028 9.47795 20.1755 11.0218 19.8063 12.5006C19.4371 13.9794 18.7357 15.3547 17.7556 16.5221C16.7754 17.6896 15.5419 18.6182 14.1491 19.2379C12.7564 19.8576 11.2409 20.1526 9.71747 20.0992C8.19892 20.046 6.71229 19.6476 5.36981 18.9362L2.10907 20.0231C1.83187 20.1155 1.53408 20.1292 1.24969 20.0621C0.965401 19.995 0.705285 19.8497 0.498718 19.6432C0.292133 19.4366 0.146894 19.1766 0.0797729 18.8922C0.0126415 18.6078 0.0263704 18.3101 0.118835 18.0328L1.20477 14.7731C0.395254 13.2473 -0.00578332 11.538 0.0387573 9.81116C0.0834421 8.07924 0.575365 6.38816 1.46747 4.90295C2.35958 3.4178 3.62157 2.18865 5.12958 1.33557C6.63747 0.482661 8.3405 0.0344501 10.0729 0.03479ZM14.2819 2.77014C12.6748 1.84341 10.8067 1.47334 8.96747 1.71643C7.12822 1.95959 5.42016 2.80236 4.10907 4.11487C2.79795 5.42752 1.95638 7.1367 1.71552 8.9762C1.47471 10.8156 1.84816 12.6829 2.77704 14.2887C2.83404 14.3873 2.86911 14.4976 2.88055 14.611C2.89193 14.7242 2.87954 14.839 2.84344 14.9469L1.66571 18.4762L5.19598 17.2985C5.304 17.2625 5.41867 17.2498 5.53192 17.2614C5.64528 17.273 5.75562 17.3087 5.85419 17.3658C7.13641 18.1074 8.59167 18.4977 10.0729 18.4967C11.9283 18.4964 13.7321 17.8833 15.2038 16.7535C16.6752 15.6239 17.7329 14.0405 18.2126 12.2487C18.6922 10.4566 18.5668 8.55606 17.8561 6.84241C17.1454 5.12871 15.8892 3.69697 14.2819 2.77014Z" fill="#C89968" stroke="#C89968" stroke-width="0.07"/>
</svg>
