<svg width="10" height="11" viewBox="0 0 10 11" fill="none" xmlns="http://www.w3.org/2000/svg">
<path d="M9.25532 0.862745H7.87234V0.323529C7.87234 0.237724 7.83872 0.155433 7.77886 0.0947595C7.71901 0.034086 7.63784 0 7.55319 0C7.46855 0 7.38737 0.034086 7.32752 0.0947595C7.26767 0.155433 7.23404 0.237724 7.23404 0.323529V0.862745H2.76596V0.323529C2.76596 0.237724 2.73233 0.155433 2.67248 0.0947595C2.61263 0.034086 2.53145 0 2.44681 0C2.36216 0 2.28099 0.034086 2.22114 0.0947595C2.16128 0.155433 2.12766 0.237724 2.12766 0.323529V0.862745H0.744681C0.547179 0.862745 0.357767 0.942279 0.218112 1.08385C0.0784573 1.22542 0 1.41743 0 1.61765V10.2451C0 10.4453 0.0784573 10.6373 0.218112 10.7789C0.357767 10.9205 0.547179 11 0.744681 11H9.25532C9.45282 11 9.64223 10.9205 9.78189 10.7789C9.92154 10.6373 10 10.4453 10 10.2451V1.61765C10 1.41743 9.92154 1.22542 9.78189 1.08385C9.64223 0.942279 9.45282 0.862745 9.25532 0.862745ZM0.744681 1.5098H2.12766V2.04902C2.12766 2.13482 2.16128 2.21712 2.22114 2.27779C2.28099 2.33846 2.36216 2.37255 2.44681 2.37255C2.53145 2.37255 2.61263 2.33846 2.67248 2.27779C2.73233 2.21712 2.76596 2.13482 2.76596 2.04902V1.5098H7.23404V2.04902C7.23404 2.13482 7.26767 2.21712 7.32752 2.27779C7.38737 2.33846 7.46855 2.37255 7.55319 2.37255C7.63784 2.37255 7.71901 2.33846 7.77886 2.27779C7.83872 2.21712 7.87234 2.13482 7.87234 2.04902V1.5098H9.25532C9.28353 1.5098 9.31059 1.52117 9.33054 1.54139C9.35049 1.56161 9.3617 1.58905 9.3617 1.61765V3.45098H0.638298V1.61765C0.638298 1.58905 0.649506 1.56161 0.669457 1.54139C0.689407 1.52117 0.716466 1.5098 0.744681 1.5098ZM9.25532 10.3529H0.744681C0.716466 10.3529 0.689407 10.3416 0.669457 10.3214C0.649506 10.3011 0.638298 10.2737 0.638298 10.2451V4.09804H9.3617V10.2451C9.3617 10.2737 9.35049 10.3011 9.33054 10.3214C9.31059 10.3416 9.28353 10.3529 9.25532 10.3529ZM5.53192 6.14706C5.53192 6.25371 5.50072 6.35796 5.44227 6.44663C5.38382 6.53531 5.30075 6.60442 5.20355 6.64523C5.10636 6.68604 4.99941 6.69672 4.89623 6.67591C4.79305 6.65511 4.69827 6.60375 4.62388 6.52834C4.54949 6.45293 4.49883 6.35685 4.47831 6.25225C4.45778 6.14766 4.46832 6.03924 4.50857 5.94071C4.54883 5.84218 4.61701 5.75797 4.70448 5.69872C4.79196 5.63947 4.8948 5.60784 5 5.60784C5.14107 5.60784 5.27637 5.66465 5.37612 5.76578C5.47587 5.8669 5.53192 6.00405 5.53192 6.14706ZM7.87234 6.14706C7.87234 6.25371 7.84114 6.35796 7.7827 6.44663C7.72425 6.53531 7.64118 6.60442 7.54398 6.64523C7.44679 6.68604 7.33984 6.69672 7.23665 6.67591C7.13347 6.65511 7.03869 6.60375 6.9643 6.52834C6.88991 6.45293 6.83926 6.35685 6.81873 6.25225C6.79821 6.14766 6.80874 6.03924 6.849 5.94071C6.88926 5.84218 6.95744 5.75797 7.04491 5.69872C7.13238 5.63947 7.23522 5.60784 7.34043 5.60784C7.4815 5.60784 7.61679 5.66465 7.71655 5.76578C7.8163 5.8669 7.87234 6.00405 7.87234 6.14706ZM3.19149 8.30392C3.19149 8.41057 3.16029 8.51482 3.10185 8.60349C3.0434 8.69217 2.96032 8.76128 2.86313 8.80209C2.76593 8.8429 2.65898 8.85358 2.5558 8.83278C2.45262 8.81197 2.35784 8.76062 2.28345 8.68521C2.20906 8.60979 2.1584 8.51371 2.13788 8.40912C2.11736 8.30452 2.12789 8.1961 2.16815 8.09757C2.20841 7.99904 2.27659 7.91483 2.36406 7.85558C2.45153 7.79633 2.55437 7.76471 2.65957 7.76471C2.80065 7.76471 2.93594 7.82152 3.0357 7.92264C3.13545 8.02376 3.19149 8.16091 3.19149 8.30392ZM5.53192 8.30392C5.53192 8.41057 5.50072 8.51482 5.44227 8.60349C5.38382 8.69217 5.30075 8.76128 5.20355 8.80209C5.10636 8.8429 4.99941 8.85358 4.89623 8.83278C4.79305 8.81197 4.69827 8.76062 4.62388 8.68521C4.54949 8.60979 4.49883 8.51371 4.47831 8.40912C4.45778 8.30452 4.46832 8.1961 4.50857 8.09757C4.54883 7.99904 4.61701 7.91483 4.70448 7.85558C4.79196 7.79633 4.8948 7.76471 5 7.76471C5.14107 7.76471 5.27637 7.82152 5.37612 7.92264C5.47587 8.02376 5.53192 8.16091 5.53192 8.30392ZM7.87234 8.30392C7.87234 8.41057 7.84114 8.51482 7.7827 8.60349C7.72425 8.69217 7.64118 8.76128 7.54398 8.80209C7.44679 8.8429 7.33984 8.85358 7.23665 8.83278C7.13347 8.81197 7.03869 8.76062 6.9643 8.68521C6.88991 8.60979 6.83926 8.51371 6.81873 8.40912C6.79821 8.30452 6.80874 8.1961 6.849 8.09757C6.88926 7.99904 6.95744 7.91483 7.04491 7.85558C7.13238 7.79633 7.23522 7.76471 7.34043 7.76471C7.4815 7.76471 7.61679 7.82152 7.71655 7.92264C7.8163 8.02376 7.87234 8.16091 7.87234 8.30392Z" fill="#5C4A3D"/>
</svg>
