<svg width="20" height="20" viewBox="0 0 20 20" fill="none" xmlns="http://www.w3.org/2000/svg">
<path d="M2.63636 15C2.18636 15 1.80114 14.8368 1.48068 14.5104C1.16023 14.184 1 13.7917 1 13.3333C1 12.875 1.16023 12.4826 1.48068 12.1563C1.80114 11.8299 2.18636 11.6667 2.63636 11.6667H2.85114C2.9125 11.6667 2.97727 11.6806 3.04545 11.7083L6.76818 7.91667C6.74091 7.84722 6.72727 7.78125 6.72727 7.71875V7.5C6.72727 7.04167 6.8875 6.64931 7.20795 6.32292C7.52841 5.99653 7.91364 5.83333 8.36364 5.83333C8.81364 5.83333 9.19886 5.99653 9.51932 6.32292C9.83977 6.64931 10 7.04167 10 7.5C10 7.52778 9.98636 7.66667 9.95909 7.91667L12.0455 10.0417C12.1136 10.0139 12.1784 10 12.2398 10H12.6693C12.7307 10 12.7955 10.0139 12.8636 10.0417L15.7682 7.08333C15.7409 7.01389 15.7273 6.94792 15.7273 6.88542V6.66667C15.7273 6.20833 15.8875 5.81597 16.208 5.48958C16.5284 5.16319 16.9136 5 17.3636 5C17.8136 5 18.1989 5.16319 18.5193 5.48958C18.8398 5.81597 19 6.20833 19 6.66667C19 7.125 18.8398 7.51736 18.5193 7.84375C18.1989 8.17014 17.8136 8.33333 17.3636 8.33333H17.1489C17.0875 8.33333 17.0227 8.31944 16.9545 8.29167L14.05 11.25C14.0773 11.3194 14.0909 11.3854 14.0909 11.4479V11.6667C14.0909 12.125 13.9307 12.5174 13.6102 12.8438C13.2898 13.1701 12.9045 13.3333 12.4545 13.3333C12.0045 13.3333 11.6193 13.1701 11.2989 12.8438C10.9784 12.5174 10.8182 12.125 10.8182 11.6667V11.4479C10.8182 11.3854 10.8318 11.3194 10.8591 11.25L8.77273 9.125C8.70455 9.15278 8.63977 9.16667 8.57841 9.16667H8.36364C8.33636 9.16667 8.2 9.15278 7.95455 9.125L4.23182 12.9167C4.25909 12.9861 4.27273 13.0521 4.27273 13.1146V13.3333C4.27273 13.7917 4.1125 14.184 3.79205 14.5104C3.47159 14.8368 3.08636 15 2.63636 15Z" fill="#C89968"/>
</svg>
