<svg width="20" height="20" viewBox="0 0 20 20" fill="none" xmlns="http://www.w3.org/2000/svg">
<path d="M10.5 19C9.33833 19 8.24042 18.7769 7.20625 18.3306C6.17208 17.8844 5.26896 17.2752 4.49688 16.5031C3.72479 15.731 3.11562 14.8279 2.66938 13.7937C2.22313 12.7596 2 11.6617 2 10.5C2 9.32417 2.23021 8.21917 2.69063 7.185C3.15104 6.15083 3.77438 5.25125 4.56063 4.48625C5.34688 3.72125 6.26417 3.11562 7.3125 2.66938C8.36083 2.22313 9.48 2 10.67 2C11.8033 2 12.8729 2.19479 13.8787 2.58438C14.8846 2.97396 15.7665 3.51229 16.5244 4.19937C17.2823 4.88646 17.8844 5.70104 18.3306 6.64313C18.7769 7.58521 19 8.60167 19 9.6925C19 11.3217 18.5042 12.5719 17.5125 13.4431C16.5208 14.3144 15.3167 14.75 13.9 14.75H12.3275C12.2 14.75 12.1115 14.7854 12.0619 14.8562C12.0123 14.9271 11.9875 15.005 11.9875 15.09C11.9875 15.26 12.0938 15.5044 12.3063 15.8231C12.5188 16.1419 12.625 16.5067 12.625 16.9175C12.625 17.6258 12.4302 18.15 12.0406 18.49C11.651 18.83 11.1375 19 10.5 19ZM6.73875 10.9888C6.97958 10.7479 7.1 10.4433 7.1 10.075C7.1 9.70667 6.97958 9.40208 6.73875 9.16125C6.49792 8.92042 6.19333 8.8 5.825 8.8C5.45667 8.8 5.15208 8.92042 4.91125 9.16125C4.67042 9.40208 4.55 9.70667 4.55 10.075C4.55 10.4433 4.67042 10.7479 4.91125 10.9888C5.15208 11.2296 5.45667 11.35 5.825 11.35C6.19333 11.35 6.49792 11.2296 6.73875 10.9888ZM9.28875 7.58875C9.52958 7.34792 9.65 7.04333 9.65 6.675C9.65 6.30667 9.52958 6.00208 9.28875 5.76125C9.04792 5.52042 8.74333 5.4 8.375 5.4C8.00667 5.4 7.70208 5.52042 7.46125 5.76125C7.22042 6.00208 7.1 6.30667 7.1 6.675C7.1 7.04333 7.22042 7.34792 7.46125 7.58875C7.70208 7.82958 8.00667 7.95 8.375 7.95C8.74333 7.95 9.04792 7.82958 9.28875 7.58875ZM13.5387 7.58875C13.7796 7.34792 13.9 7.04333 13.9 6.675C13.9 6.30667 13.7796 6.00208 13.5387 5.76125C13.2979 5.52042 12.9933 5.4 12.625 5.4C12.2567 5.4 11.9521 5.52042 11.7113 5.76125C11.4704 6.00208 11.35 6.30667 11.35 6.675C11.35 7.04333 11.4704 7.34792 11.7113 7.58875C11.9521 7.82958 12.2567 7.95 12.625 7.95C12.9933 7.95 13.2979 7.82958 13.5387 7.58875ZM16.0887 10.9888C16.3296 10.7479 16.45 10.4433 16.45 10.075C16.45 9.70667 16.3296 9.40208 16.0887 9.16125C15.8479 8.92042 15.5433 8.8 15.175 8.8C14.8067 8.8 14.5021 8.92042 14.2613 9.16125C14.0204 9.40208 13.9 9.70667 13.9 10.075C13.9 10.4433 14.0204 10.7479 14.2613 10.9888C14.5021 11.2296 14.8067 11.35 15.175 11.35C15.5433 11.35 15.8479 11.2296 16.0887 10.9888ZM10.5 17.3C10.6275 17.3 10.7302 17.2646 10.8081 17.1938C10.886 17.1229 10.925 17.0308 10.925 16.9175C10.925 16.7192 10.8187 16.4854 10.6062 16.2163C10.3937 15.9471 10.2875 15.5433 10.2875 15.005C10.2875 14.41 10.4929 13.9354 10.9038 13.5813C11.3146 13.2271 11.8175 13.05 12.4125 13.05H13.9C14.835 13.05 15.6354 12.7773 16.3013 12.2319C16.9671 11.6865 17.3 10.84 17.3 9.6925C17.3 7.97833 16.6448 6.55104 15.3344 5.41062C14.024 4.27021 12.4692 3.7 10.67 3.7C8.74333 3.7 7.1 4.35875 5.74 5.67625C4.38 6.99375 3.7 8.60167 3.7 10.5C3.7 12.3842 4.36229 13.9885 5.68688 15.3131C7.01146 16.6377 8.61583 17.3 10.5 17.3Z" fill="#C89968"/>
</svg>
