<svg width="20" height="20" viewBox="0 0 20 20" fill="none" xmlns="http://www.w3.org/2000/svg">
<path d="M10.5 20C8.14479 20 6.13932 19.193 4.48359 17.5789C2.82786 15.9649 2 14 2 11.6842C2 10.5789 2.21693 9.52193 2.65078 8.51316C3.08464 7.50439 3.7 6.61404 4.49688 5.84211L10.5 0L16.5031 5.84211C17.3 6.61404 17.9154 7.50439 18.3492 8.51316C18.7831 9.52193 19 10.5789 19 11.6842C19 14 18.1721 15.9649 16.5164 17.5789C14.8607 19.193 12.8552 20 10.5 20ZM4.125 11.6842H16.875C16.875 10.8596 16.7156 10.0746 16.3969 9.32895C16.0781 8.58333 15.6177 7.92982 15.0156 7.36842L10.5 2.94737L5.98438 7.36842C5.38229 7.92982 4.92188 8.58333 4.60313 9.32895C4.28438 10.0746 4.125 10.8596 4.125 11.6842Z" fill="#C89968"/>
</svg>
