<svg width="24" height="24" viewBox="0 0 24 24" fill="none" xmlns="http://www.w3.org/2000/svg">
<path d="M15 20.6911V12.8088C15 12.5475 14.8946 12.2969 14.7071 12.1121C14.5196 11.9273 14.2652 11.8235 14 11.8235H10C9.73478 11.8235 9.48043 11.9273 9.29289 12.1121C9.10536 12.2969 9 12.5475 9 12.8088V20.6911" stroke="#C89968" stroke-width="2.49874" stroke-linecap="round" stroke-linejoin="round"/>
<path d="M3 9.85292C2.99993 9.56626 3.06333 9.28305 3.18579 9.02302C3.30824 8.763 3.4868 8.53242 3.709 8.34739L10.709 2.43562C11.07 2.13502 11.5274 1.97009 12 1.97009C12.4726 1.97009 12.93 2.13502 13.291 2.43562L20.291 8.34739C20.5132 8.53242 20.6918 8.763 20.8142 9.02302C20.9367 9.28305 21.0001 9.56626 21 9.85292V18.7206C21 19.2432 20.7893 19.7444 20.4142 20.114C20.0391 20.4835 19.5304 20.6912 19 20.6912H5C4.46957 20.6912 3.96086 20.4835 3.58579 20.114C3.21071 19.7444 3 19.2432 3 18.7206V9.85292Z" stroke="#C89968" stroke-width="2.49874" stroke-linecap="round" stroke-linejoin="round"/>
</svg>
