<svg width="17" height="17" viewBox="0 0 17 17" fill="none" xmlns="http://www.w3.org/2000/svg">
<path d="M0.134211 10.6026C0.0447368 10.5132 0 10.4088 0 10.2895C0 10.1702 0.0447368 10.0658 0.134211 9.97632C0.223684 9.88684 0.32807 9.84211 0.447368 9.84211C0.566667 9.84211 0.671053 9.88684 0.760526 9.97632C0.85 10.0658 0.894737 10.1702 0.894737 10.2895C0.894737 10.4088 0.85 10.5132 0.760526 10.6026C0.671053 10.6921 0.566667 10.7368 0.447368 10.7368C0.32807 10.7368 0.223684 10.6921 0.134211 10.6026ZM0.134211 7.02368C0.0447368 6.93421 0 6.82982 0 6.71053C0 6.59123 0.0447368 6.48684 0.134211 6.39737C0.223684 6.30789 0.32807 6.26316 0.447368 6.26316C0.566667 6.26316 0.671053 6.30789 0.760526 6.39737C0.85 6.48684 0.894737 6.59123 0.894737 6.71053C0.894737 6.82982 0.85 6.93421 0.760526 7.02368C0.671053 7.11316 0.566667 7.1579 0.447368 7.1579C0.32807 7.1579 0.223684 7.11316 0.134211 7.02368ZM2.49408 14.5059C2.32259 14.3344 2.23684 14.1219 2.23684 13.8684C2.23684 13.6149 2.32259 13.4024 2.49408 13.2309C2.66557 13.0594 2.87807 12.9737 3.13158 12.9737C3.38509 12.9737 3.59759 13.0594 3.76908 13.2309C3.94057 13.4024 4.02632 13.6149 4.02632 13.8684C4.02632 14.1219 3.94057 14.3344 3.76908 14.5059C3.59759 14.6774 3.38509 14.7632 3.13158 14.7632C2.87807 14.7632 2.66557 14.6774 2.49408 14.5059ZM2.49408 10.927C2.32259 10.7555 2.23684 10.543 2.23684 10.2895C2.23684 10.036 2.32259 9.82347 2.49408 9.65197C2.66557 9.48048 2.87807 9.39474 3.13158 9.39474C3.38509 9.39474 3.59759 9.48048 3.76908 9.65197C3.94057 9.82347 4.02632 10.036 4.02632 10.2895C4.02632 10.543 3.94057 10.7555 3.76908 10.927C3.59759 11.0985 3.38509 11.1842 3.13158 11.1842C2.87807 11.1842 2.66557 11.0985 2.49408 10.927ZM2.49408 7.34803C2.32259 7.17654 2.23684 6.96404 2.23684 6.71053C2.23684 6.45702 2.32259 6.24452 2.49408 6.07303C2.66557 5.90154 2.87807 5.81579 3.13158 5.81579C3.38509 5.81579 3.59759 5.90154 3.76908 6.07303C3.94057 6.24452 4.02632 6.45702 4.02632 6.71053C4.02632 6.96404 3.94057 7.17654 3.76908 7.34803C3.59759 7.51952 3.38509 7.60526 3.13158 7.60526C2.87807 7.60526 2.66557 7.51952 2.49408 7.34803ZM2.49408 3.76908C2.32259 3.59759 2.23684 3.38509 2.23684 3.13158C2.23684 2.87807 2.32259 2.66557 2.49408 2.49408C2.66557 2.32259 2.87807 2.23684 3.13158 2.23684C3.38509 2.23684 3.59759 2.32259 3.76908 2.49408C3.94057 2.66557 4.02632 2.87807 4.02632 3.13158C4.02632 3.38509 3.94057 3.59759 3.76908 3.76908C3.59759 3.94057 3.38509 4.02632 3.13158 4.02632C2.87807 4.02632 2.66557 3.94057 2.49408 3.76908ZM5.75987 11.2401C5.4989 10.9792 5.36842 10.6623 5.36842 10.2895C5.36842 9.91667 5.4989 9.59978 5.75987 9.33882C6.02083 9.07785 6.33772 8.94737 6.71053 8.94737C7.08333 8.94737 7.40022 9.07785 7.66118 9.33882C7.92215 9.59978 8.05263 9.91667 8.05263 10.2895C8.05263 10.6623 7.92215 10.9792 7.66118 11.2401C7.40022 11.5011 7.08333 11.6316 6.71053 11.6316C6.33772 11.6316 6.02083 11.5011 5.75987 11.2401ZM5.75987 7.66118C5.4989 7.40022 5.36842 7.08333 5.36842 6.71053C5.36842 6.33772 5.4989 6.02083 5.75987 5.75987C6.02083 5.4989 6.33772 5.36842 6.71053 5.36842C7.08333 5.36842 7.40022 5.4989 7.66118 5.75987C7.92215 6.02083 8.05263 6.33772 8.05263 6.71053C8.05263 7.08333 7.92215 7.40022 7.66118 7.66118C7.40022 7.92215 7.08333 8.05263 6.71053 8.05263C6.33772 8.05263 6.02083 7.92215 5.75987 7.66118ZM6.07303 14.5059C5.90154 14.3344 5.81579 14.1219 5.81579 13.8684C5.81579 13.6149 5.90154 13.4024 6.07303 13.2309C6.24452 13.0594 6.45702 12.9737 6.71053 12.9737C6.96404 12.9737 7.17654 13.0594 7.34803 13.2309C7.51952 13.4024 7.60526 13.6149 7.60526 13.8684C7.60526 14.1219 7.51952 14.3344 7.34803 14.5059C7.17654 14.6774 6.96404 14.7632 6.71053 14.7632C6.45702 14.7632 6.24452 14.6774 6.07303 14.5059ZM6.07303 3.76908C5.90154 3.59759 5.81579 3.38509 5.81579 3.13158C5.81579 2.87807 5.90154 2.66557 6.07303 2.49408C6.24452 2.32259 6.45702 2.23684 6.71053 2.23684C6.96404 2.23684 7.17654 2.32259 7.34803 2.49408C7.51952 2.66557 7.60526 2.87807 7.60526 3.13158C7.60526 3.38509 7.51952 3.59759 7.34803 3.76908C7.17654 3.94057 6.96404 4.02632 6.71053 4.02632C6.45702 4.02632 6.24452 3.94057 6.07303 3.76908ZM6.39737 16.8658C6.30789 16.7763 6.26316 16.6719 6.26316 16.5526C6.26316 16.4333 6.30789 16.3289 6.39737 16.2395C6.48684 16.15 6.59123 16.1053 6.71053 16.1053C6.82982 16.1053 6.93421 16.15 7.02368 16.2395C7.11316 16.3289 7.1579 16.4333 7.1579 16.5526C7.1579 16.6719 7.11316 16.7763 7.02368 16.8658C6.93421 16.9553 6.82982 17 6.71053 17C6.59123 17 6.48684 16.9553 6.39737 16.8658ZM6.39737 0.760526C6.30789 0.671053 6.26316 0.566667 6.26316 0.447368C6.26316 0.32807 6.30789 0.223684 6.39737 0.134211C6.48684 0.0447368 6.59123 0 6.71053 0C6.82982 0 6.93421 0.0447368 7.02368 0.134211C7.11316 0.223684 7.1579 0.32807 7.1579 0.447368C7.1579 0.566667 7.11316 0.671053 7.02368 0.760526C6.93421 0.85 6.82982 0.894737 6.71053 0.894737C6.59123 0.894737 6.48684 0.85 6.39737 0.760526ZM9.33882 11.2401C9.07785 10.9792 8.94737 10.6623 8.94737 10.2895C8.94737 9.91667 9.07785 9.59978 9.33882 9.33882C9.59978 9.07785 9.91667 8.94737 10.2895 8.94737C10.6623 8.94737 10.9792 9.07785 11.2401 9.33882C11.5011 9.59978 11.6316 9.91667 11.6316 10.2895C11.6316 10.6623 11.5011 10.9792 11.2401 11.2401C10.9792 11.5011 10.6623 11.6316 10.2895 11.6316C9.91667 11.6316 9.59978 11.5011 9.33882 11.2401ZM9.33882 7.66118C9.07785 7.40022 8.94737 7.08333 8.94737 6.71053C8.94737 6.33772 9.07785 6.02083 9.33882 5.75987C9.59978 5.4989 9.91667 5.36842 10.2895 5.36842C10.6623 5.36842 10.9792 5.4989 11.2401 5.75987C11.5011 6.02083 11.6316 6.33772 11.6316 6.71053C11.6316 7.08333 11.5011 7.40022 11.2401 7.66118C10.9792 7.92215 10.6623 8.05263 10.2895 8.05263C9.91667 8.05263 9.59978 7.92215 9.33882 7.66118ZM9.65197 14.5059C9.48048 14.3344 9.39474 14.1219 9.39474 13.8684C9.39474 13.6149 9.48048 13.4024 9.65197 13.2309C9.82347 13.0594 10.036 12.9737 10.2895 12.9737C10.543 12.9737 10.7555 13.0594 10.927 13.2309C11.0985 13.4024 11.1842 13.6149 11.1842 13.8684C11.1842 14.1219 11.0985 14.3344 10.927 14.5059C10.7555 14.6774 10.543 14.7632 10.2895 14.7632C10.036 14.7632 9.82347 14.6774 9.65197 14.5059ZM9.65197 3.76908C9.48048 3.59759 9.39474 3.38509 9.39474 3.13158C9.39474 2.87807 9.48048 2.66557 9.65197 2.49408C9.82347 2.32259 10.036 2.23684 10.2895 2.23684C10.543 2.23684 10.7555 2.32259 10.927 2.49408C11.0985 2.66557 11.1842 2.87807 11.1842 3.13158C11.1842 3.38509 11.0985 3.59759 10.927 3.76908C10.7555 3.94057 10.543 4.02632 10.2895 4.02632C10.036 4.02632 9.82347 3.94057 9.65197 3.76908ZM9.97632 16.8658C9.88684 16.7763 9.84211 16.6719 9.84211 16.5526C9.84211 16.4333 9.88684 16.3289 9.97632 16.2395C10.0658 16.15 10.1702 16.1053 10.2895 16.1053C10.4088 16.1053 10.5132 16.15 10.6026 16.2395C10.6921 16.3289 10.7368 16.4333 10.7368 16.5526C10.7368 16.6719 10.6921 16.7763 10.6026 16.8658C10.5132 16.9553 10.4088 17 10.2895 17C10.1702 17 10.0658 16.9553 9.97632 16.8658ZM9.97632 0.760526C9.88684 0.671053 9.84211 0.566667 9.84211 0.447368C9.84211 0.32807 9.88684 0.223684 9.97632 0.134211C10.0658 0.0447368 10.1702 0 10.2895 0C10.4088 0 10.5132 0.0447368 10.6026 0.134211C10.6921 0.223684 10.7368 0.32807 10.7368 0.447368C10.7368 0.566667 10.6921 0.671053 10.6026 0.760526C10.5132 0.85 10.4088 0.894737 10.2895 0.894737C10.1702 0.894737 10.0658 0.85 9.97632 0.760526ZM13.2309 14.5059C13.0594 14.3344 12.9737 14.1219 12.9737 13.8684C12.9737 13.6149 13.0594 13.4024 13.2309 13.2309C13.4024 13.0594 13.6149 12.9737 13.8684 12.9737C14.1219 12.9737 14.3344 13.0594 14.5059 13.2309C14.6774 13.4024 14.7632 13.6149 14.7632 13.8684C14.7632 14.1219 14.6774 14.3344 14.5059 14.5059C14.3344 14.6774 14.1219 14.7632 13.8684 14.7632C13.6149 14.7632 13.4024 14.6774 13.2309 14.5059ZM13.2309 10.927C13.0594 10.7555 12.9737 10.543 12.9737 10.2895C12.9737 10.036 13.0594 9.82347 13.2309 9.65197C13.4024 9.48048 13.6149 9.39474 13.8684 9.39474C14.1219 9.39474 14.3344 9.48048 14.5059 9.65197C14.6774 9.82347 14.7632 10.036 14.7632 10.2895C14.7632 10.543 14.6774 10.7555 14.5059 10.927C14.3344 11.0985 14.1219 11.1842 13.8684 11.1842C13.6149 11.1842 13.4024 11.0985 13.2309 10.927ZM13.2309 7.34803C13.0594 7.17654 12.9737 6.96404 12.9737 6.71053C12.9737 6.45702 13.0594 6.24452 13.2309 6.07303C13.4024 5.90154 13.6149 5.81579 13.8684 5.81579C14.1219 5.81579 14.3344 5.90154 14.5059 6.07303C14.6774 6.24452 14.7632 6.45702 14.7632 6.71053C14.7632 6.96404 14.6774 7.17654 14.5059 7.34803C14.3344 7.51952 14.1219 7.60526 13.8684 7.60526C13.6149 7.60526 13.4024 7.51952 13.2309 7.34803ZM13.2309 3.76908C13.0594 3.59759 12.9737 3.38509 12.9737 3.13158C12.9737 2.87807 13.0594 2.66557 13.2309 2.49408C13.4024 2.32259 13.6149 2.23684 13.8684 2.23684C14.1219 2.23684 14.3344 2.32259 14.5059 2.49408C14.6774 2.66557 14.7632 2.87807 14.7632 3.13158C14.7632 3.38509 14.6774 3.59759 14.5059 3.76908C14.3344 3.94057 14.1219 4.02632 13.8684 4.02632C13.6149 4.02632 13.4024 3.94057 13.2309 3.76908ZM16.2395 10.6026C16.15 10.5132 16.1053 10.4088 16.1053 10.2895C16.1053 10.1702 16.15 10.0658 16.2395 9.97632C16.3289 9.88684 16.4333 9.84211 16.5526 9.84211C16.6719 9.84211 16.7763 9.88684 16.8658 9.97632C16.9553 10.0658 17 10.1702 17 10.2895C17 10.4088 16.9553 10.5132 16.8658 10.6026C16.7763 10.6921 16.6719 10.7368 16.5526 10.7368C16.4333 10.7368 16.3289 10.6921 16.2395 10.6026ZM16.2395 7.02368C16.15 6.93421 16.1053 6.82982 16.1053 6.71053C16.1053 6.59123 16.15 6.48684 16.2395 6.39737C16.3289 6.30789 16.4333 6.26316 16.5526 6.26316C16.6719 6.26316 16.7763 6.30789 16.8658 6.39737C16.9553 6.48684 17 6.59123 17 6.71053C17 6.82982 16.9553 6.93421 16.8658 7.02368C16.7763 7.11316 16.6719 7.1579 16.5526 7.1579C16.4333 7.1579 16.3289 7.11316 16.2395 7.02368Z" fill="#C89968"/>
</svg>
