<svg width="20" height="20" viewBox="0 0 20 20" fill="none" xmlns="http://www.w3.org/2000/svg">
<g clip-path="url(#clip0_252_132)">
<path d="M7 19H3C1.89543 19 1 18.1046 1 17V9.1475C1 8.19428 1.45301 7.29779 2.2204 6.73234L8.8136 1.87419C9.51911 1.35434 10.4809 1.35434 11.1864 1.87419L17.7796 6.73233C18.547 7.29779 19 8.19428 19 9.1475V17C19 18.1046 18.1046 19 17 19H13M7 19V12.4737C7 11.3691 7.89543 10.4737 9 10.4737H11C12.1046 10.4737 13 11.3691 13 12.4737V19M7 19H13" stroke="#B9AA98" stroke-width="1.6"/>
</g>
<defs>
<clipPath id="clip0_252_132">
<rect width="20" height="20" fill="white"/>
</clipPath>
</defs>
</svg>
