<svg width="18" height="14" viewBox="0 0 18 14" fill="none" xmlns="http://www.w3.org/2000/svg">
<path d="M1.6875 14C1.22344 14 0.826172 13.8286 0.495703 13.4857C0.165234 13.1428 0 12.7306 0 12.249V1.74319C0 1.26162 0.165234 0.850694 0.495703 0.510417C0.826172 0.170139 1.22344 0 1.6875 0H16.3125C16.7766 0 17.1738 0.171435 17.5043 0.514305C17.8348 0.857175 18 1.2694 18 1.75097V12.2568C18 12.7384 17.8348 13.1493 17.5043 13.4896C17.1738 13.8299 16.7766 14 16.3125 14H1.6875ZM9 8.16667L1.6875 3.81597V12.25H16.3125V3.81597L9 8.16667ZM9 6.10069L16.3125 1.75H1.6875L9 6.10069ZM1.6875 3.81597V1.75V12.25V3.81597Z" fill="#C89968"/>
</svg>
