<svg width="15" height="15" viewBox="0 0 15 15" fill="none" xmlns="http://www.w3.org/2000/svg">
<path d="M2.13226 12.919C1.44547 12.2562 0.918391 11.4952 0.551034 10.636C0.183678 9.77677 0 8.88843 0 7.97096C0 6.92277 0.183678 5.93238 0.551034 4.9998C0.918391 4.06722 1.45345 3.24639 2.15622 2.53732C2.71524 1.96698 3.34214 1.50069 4.03693 1.13845C4.73171 0.776205 5.56625 0.502596 6.54054 0.317621C7.51483 0.132646 8.66881 0.0285981 10.0025 0.00547623C11.3361 -0.0176456 12.9134 0.0324517 14.7342 0.155768C14.8939 2.14425 14.9817 3.81673 14.9977 5.17321C15.0137 6.52969 14.9458 7.67808 14.7941 8.61837C14.6423 9.55866 14.3948 10.3487 14.0514 10.9884C13.708 11.6281 13.2488 12.2254 12.6738 12.7803C11.9391 13.5048 11.1228 14.0559 10.225 14.4335C9.3271 14.8112 8.41038 15 7.4749 15C6.45269 15 5.48239 14.8227 4.564 14.4682C3.64561 14.1137 2.83503 13.5973 2.13226 12.919ZM4.59994 12.6416C5.04716 12.8728 5.51034 13.0501 5.9895 13.1734C6.46866 13.2967 6.9638 13.3506 7.4749 13.3352C8.19364 13.3198 8.88044 13.1695 9.53529 12.8844C10.1901 12.5992 10.829 12.1714 11.4519 11.6011C11.8672 11.2157 12.2106 10.7456 12.4821 10.1907C12.7537 9.63573 12.9573 8.95749 13.0931 8.15593C13.2288 7.35437 13.3007 6.42565 13.3087 5.36975C13.3167 4.31385 13.2648 3.09995 13.153 1.72805C11.9391 1.63557 10.825 1.60474 9.81081 1.63557C8.79659 1.6664 7.88219 1.76274 7.06762 1.92459C6.25304 2.08644 5.54229 2.31381 4.93535 2.60669C4.32842 2.89956 3.8253 3.2541 3.426 3.67029C2.88295 4.24063 2.46368 4.88033 2.1682 5.58941C1.87272 6.29848 1.72498 7.01525 1.72498 7.73974C1.72498 8.44881 1.84477 9.11934 2.08435 9.75134C2.32393 10.3833 2.67531 10.9691 3.1385 11.5086C3.76141 10.2446 4.58796 9.11163 5.61816 8.10969C6.64835 7.10774 7.84226 6.25994 9.19988 5.56628C7.95406 6.62989 6.96779 7.73588 6.24106 8.88427C5.51434 10.0327 4.9673 11.2851 4.59994 12.6416Z" fill="#C89968"/>
</svg>
