<svg width="18" height="15" viewBox="0 0 18 15" fill="none" xmlns="http://www.w3.org/2000/svg">
<path d="M14.8636 8.30357H4.36364V6.69643H14.8636L13.5682 5.42411L14.7273 4.28571L18 7.5L14.7273 10.7143L13.5682 9.57589L14.8636 8.30357ZM10.3636 5.08929V1.60714H1.63636V13.3929H10.3636V9.91071H12V13.3929C12 13.8348 11.8398 14.2132 11.5193 14.5279C11.1989 14.8426 10.8136 15 10.3636 15H1.63636C1.18636 15 0.801136 14.8426 0.480682 14.5279C0.160227 14.2132 0 13.8348 0 13.3929V1.60714C0 1.16518 0.160227 0.786831 0.480682 0.472099C0.801136 0.157367 1.18636 0 1.63636 0H10.3636C10.8136 0 11.1989 0.157367 11.5193 0.472099C11.8398 0.786831 12 1.16518 12 1.60714V5.08929H10.3636Z" fill="#C89968"/>
</svg>
