<svg width="17" height="21" viewBox="0 0 17 21" fill="none" xmlns="http://www.w3.org/2000/svg">
<path d="M8.5 21C6.14479 21 4.13932 20.1526 2.48359 18.4579C0.827865 16.7632 0 14.7 0 12.2684C0 11.1079 0.216927 9.99803 0.650781 8.93882C1.08464 7.87961 1.7 6.94474 2.49688 6.13421L8.5 0L14.5031 6.13421C15.3 6.94474 15.9154 7.87961 16.3492 8.93882C16.7831 9.99803 17 11.1079 17 12.2684C17 14.7 16.1721 16.7632 14.5164 18.4579C12.8607 20.1526 10.8552 21 8.5 21ZM2.125 12.2684H14.875C14.875 11.4026 14.7156 10.5783 14.3969 9.79539C14.0781 9.0125 13.6177 8.32632 13.0156 7.73684L8.5 3.09474L3.98438 7.73684C3.38229 8.32632 2.92188 9.0125 2.60313 9.79539C2.28437 10.5783 2.125 11.4026 2.125 12.2684Z" fill="#C89968"/>
</svg>
