<svg width="18" height="18" viewBox="0 0 18 18" fill="none" xmlns="http://www.w3.org/2000/svg">
<path d="M5.8125 7.6875C4.9375 6.8125 4.5 5.75 4.5 4.5C4.5 3.25 4.9375 2.1875 5.8125 1.3125C6.6875 0.4375 7.75 0 9 0C10.25 0 11.3125 0.4375 12.1875 1.3125C13.0625 2.1875 13.5 3.25 13.5 4.5C13.5 5.75 13.0625 6.8125 12.1875 7.6875C11.3125 8.5625 10.25 9 9 9C7.75 9 6.6875 8.5625 5.8125 7.6875ZM0 18V15C0 14.5208 0.130208 14.0677 0.390625 13.6406C0.651042 13.2135 1.01042 12.8542 1.46875 12.5625C2.61458 11.8958 3.82594 11.3854 5.10281 11.0312C6.37969 10.6771 7.67656 10.5 8.99344 10.5C10.3103 10.5 11.6094 10.6771 12.8906 11.0312C14.1719 11.3854 15.3854 11.8958 16.5313 12.5625C16.9896 12.8333 17.349 13.1875 17.6094 13.625C17.8698 14.0625 18 14.5208 18 15V18H0ZM2.25 15.75H15.75V15C15.75 14.8921 15.7184 14.7941 15.6553 14.7059C15.5924 14.6176 15.5094 14.549 15.4063 14.5C14.4479 13.9167 13.4271 13.4792 12.3438 13.1875C11.2604 12.8958 10.1458 12.75 9 12.75C7.85417 12.75 6.73958 12.8958 5.65625 13.1875C4.57292 13.4792 3.55208 13.9167 2.59375 14.5C2.48958 14.5833 2.40625 14.6638 2.34375 14.7413C2.28125 14.819 2.25 14.9052 2.25 15V15.75ZM10.5938 6.08719C11.0313 5.64531 11.25 5.11406 11.25 4.49344C11.25 3.87281 11.0291 3.34375 10.5872 2.90625C10.1453 2.46875 9.61406 2.25 8.99344 2.25C8.37281 2.25 7.84375 2.47094 7.40625 2.91281C6.96875 3.35469 6.75 3.88594 6.75 4.50656C6.75 5.12719 6.97094 5.65625 7.41281 6.09375C7.85469 6.53125 8.38594 6.75 9.00656 6.75C9.62719 6.75 10.1563 6.52906 10.5938 6.08719Z" fill="#C89968"/>
</svg>
