<svg width="15" height="15" viewBox="0 0 15 15" fill="none" xmlns="http://www.w3.org/2000/svg">
<path d="M1.60714 15C1.16518 15 0.78683 14.8426 0.472098 14.5279C0.157366 14.2132 0 13.8348 0 13.3929V10.4464C0 10.0026 0.359771 9.64286 0.803571 9.64286C1.24737 9.64286 1.60714 10.0026 1.60714 10.4464V11.5179C1.60714 12.5534 2.44661 13.3929 3.48214 13.3929H4.55357C4.99737 13.3929 5.35714 13.7526 5.35714 14.1964C5.35714 14.6402 4.99737 15 4.55357 15H1.60714ZM10.4464 15C10.0026 15 9.64286 14.6402 9.64286 14.1964C9.64286 13.7526 10.0026 13.3929 10.4464 13.3929H11.5179C12.5534 13.3929 13.3929 12.5534 13.3929 11.5179V10.4464C13.3929 10.0026 13.7526 9.64286 14.1964 9.64286C14.6402 9.64286 15 10.0026 15 10.4464V13.3929C15 13.8348 14.8426 14.2132 14.5279 14.5279C14.2132 14.8426 13.8348 15 13.3929 15H10.4464ZM0.803571 5.35714C0.359771 5.35714 0 4.99737 0 4.55357V1.60714C0 1.16518 0.157366 0.786831 0.472098 0.472099C0.78683 0.157367 1.16518 0 1.60714 0H4.55357C4.99737 0 5.35714 0.359771 5.35714 0.803571C5.35714 1.24737 4.99737 1.60714 4.55357 1.60714H3.48214C2.44661 1.60714 1.60714 2.44661 1.60714 3.48214V4.55357C1.60714 4.99737 1.24737 5.35714 0.803571 5.35714ZM14.1964 5.35714C13.7526 5.35714 13.3929 4.99737 13.3929 4.55357V3.48214C13.3929 2.44661 12.5534 1.60714 11.5179 1.60714H10.4464C10.0026 1.60714 9.64286 1.24737 9.64286 0.803571C9.64286 0.359771 10.0026 0 10.4464 0H13.3929C13.8348 0 14.2132 0.157367 14.5279 0.472099C14.8426 0.786831 15 1.16518 15 1.60714V4.55357C15 4.99737 14.6402 5.35714 14.1964 5.35714Z" fill="#C89968"/>
</svg>
