<svg width="20" height="20" viewBox="0 0 20 20" fill="none" xmlns="http://www.w3.org/2000/svg">
<path d="M2.13421 12.6026C2.04474 12.5132 2 12.4088 2 12.2895C2 12.1702 2.04474 12.0658 2.13421 11.9763C2.22368 11.8868 2.32807 11.8421 2.44737 11.8421C2.56667 11.8421 2.67105 11.8868 2.76053 11.9763C2.85 12.0658 2.89474 12.1702 2.89474 12.2895C2.89474 12.4088 2.85 12.5132 2.76053 12.6026C2.67105 12.6921 2.56667 12.7368 2.44737 12.7368C2.32807 12.7368 2.22368 12.6921 2.13421 12.6026ZM2.13421 9.02368C2.04474 8.93421 2 8.82982 2 8.71053C2 8.59123 2.04474 8.48684 2.13421 8.39737C2.22368 8.30789 2.32807 8.26316 2.44737 8.26316C2.56667 8.26316 2.67105 8.30789 2.76053 8.39737C2.85 8.48684 2.89474 8.59123 2.89474 8.71053C2.89474 8.82982 2.85 8.93421 2.76053 9.02368C2.67105 9.11316 2.56667 9.1579 2.44737 9.1579C2.32807 9.1579 2.22368 9.11316 2.13421 9.02368ZM4.49408 16.5059C4.32259 16.3344 4.23684 16.1219 4.23684 15.8684C4.23684 15.6149 4.32259 15.4024 4.49408 15.2309C4.66557 15.0594 4.87807 14.9737 5.13158 14.9737C5.38509 14.9737 5.59759 15.0594 5.76908 15.2309C5.94057 15.4024 6.02632 15.6149 6.02632 15.8684C6.02632 16.1219 5.94057 16.3344 5.76908 16.5059C5.59759 16.6774 5.38509 16.7632 5.13158 16.7632C4.87807 16.7632 4.66557 16.6774 4.49408 16.5059ZM4.49408 12.927C4.32259 12.7555 4.23684 12.543 4.23684 12.2895C4.23684 12.036 4.32259 11.8235 4.49408 11.652C4.66557 11.4805 4.87807 11.3947 5.13158 11.3947C5.38509 11.3947 5.59759 11.4805 5.76908 11.652C5.94057 11.8235 6.02632 12.036 6.02632 12.2895C6.02632 12.543 5.94057 12.7555 5.76908 12.927C5.59759 13.0985 5.38509 13.1842 5.13158 13.1842C4.87807 13.1842 4.66557 13.0985 4.49408 12.927ZM4.49408 9.34803C4.32259 9.17654 4.23684 8.96404 4.23684 8.71053C4.23684 8.45702 4.32259 8.24452 4.49408 8.07303C4.66557 7.90154 4.87807 7.81579 5.13158 7.81579C5.38509 7.81579 5.59759 7.90154 5.76908 8.07303C5.94057 8.24452 6.02632 8.45702 6.02632 8.71053C6.02632 8.96404 5.94057 9.17654 5.76908 9.34803C5.59759 9.51952 5.38509 9.60526 5.13158 9.60526C4.87807 9.60526 4.66557 9.51952 4.49408 9.34803ZM4.49408 5.76908C4.32259 5.59759 4.23684 5.38509 4.23684 5.13158C4.23684 4.87807 4.32259 4.66557 4.49408 4.49408C4.66557 4.32259 4.87807 4.23684 5.13158 4.23684C5.38509 4.23684 5.59759 4.32259 5.76908 4.49408C5.94057 4.66557 6.02632 4.87807 6.02632 5.13158C6.02632 5.38509 5.94057 5.59759 5.76908 5.76908C5.59759 5.94057 5.38509 6.02632 5.13158 6.02632C4.87807 6.02632 4.66557 5.94057 4.49408 5.76908ZM7.75987 13.2401C7.4989 12.9792 7.36842 12.6623 7.36842 12.2895C7.36842 11.9167 7.4989 11.5998 7.75987 11.3388C8.02083 11.0779 8.33772 10.9474 8.71053 10.9474C9.08333 10.9474 9.40022 11.0779 9.66118 11.3388C9.92215 11.5998 10.0526 11.9167 10.0526 12.2895C10.0526 12.6623 9.92215 12.9792 9.66118 13.2401C9.40022 13.5011 9.08333 13.6316 8.71053 13.6316C8.33772 13.6316 8.02083 13.5011 7.75987 13.2401ZM7.75987 9.66118C7.4989 9.40022 7.36842 9.08333 7.36842 8.71053C7.36842 8.33772 7.4989 8.02083 7.75987 7.75987C8.02083 7.4989 8.33772 7.36842 8.71053 7.36842C9.08333 7.36842 9.40022 7.4989 9.66118 7.75987C9.92215 8.02083 10.0526 8.33772 10.0526 8.71053C10.0526 9.08333 9.92215 9.40022 9.66118 9.66118C9.40022 9.92215 9.08333 10.0526 8.71053 10.0526C8.33772 10.0526 8.02083 9.92215 7.75987 9.66118ZM8.07303 16.5059C7.90154 16.3344 7.81579 16.1219 7.81579 15.8684C7.81579 15.6149 7.90154 15.4024 8.07303 15.2309C8.24452 15.0594 8.45702 14.9737 8.71053 14.9737C8.96404 14.9737 9.17654 15.0594 9.34803 15.2309C9.51952 15.4024 9.60526 15.6149 9.60526 15.8684C9.60526 16.1219 9.51952 16.3344 9.34803 16.5059C9.17654 16.6774 8.96404 16.7632 8.71053 16.7632C8.45702 16.7632 8.24452 16.6774 8.07303 16.5059ZM8.07303 5.76908C7.90154 5.59759 7.81579 5.38509 7.81579 5.13158C7.81579 4.87807 7.90154 4.66557 8.07303 4.49408C8.24452 4.32259 8.45702 4.23684 8.71053 4.23684C8.96404 4.23684 9.17654 4.32259 9.34803 4.49408C9.51952 4.66557 9.60526 4.87807 9.60526 5.13158C9.60526 5.38509 9.51952 5.59759 9.34803 5.76908C9.17654 5.94057 8.96404 6.02632 8.71053 6.02632C8.45702 6.02632 8.24452 5.94057 8.07303 5.76908ZM8.39737 18.8658C8.30789 18.7763 8.26316 18.6719 8.26316 18.5526C8.26316 18.4333 8.30789 18.3289 8.39737 18.2395C8.48684 18.15 8.59123 18.1053 8.71053 18.1053C8.82982 18.1053 8.93421 18.15 9.02368 18.2395C9.11316 18.3289 9.1579 18.4333 9.1579 18.5526C9.1579 18.6719 9.11316 18.7763 9.02368 18.8658C8.93421 18.9553 8.82982 19 8.71053 19C8.59123 19 8.48684 18.9553 8.39737 18.8658ZM8.39737 2.76053C8.30789 2.67105 8.26316 2.56667 8.26316 2.44737C8.26316 2.32807 8.30789 2.22368 8.39737 2.13421C8.48684 2.04474 8.59123 2 8.71053 2C8.82982 2 8.93421 2.04474 9.02368 2.13421C9.11316 2.22368 9.1579 2.32807 9.1579 2.44737C9.1579 2.56667 9.11316 2.67105 9.02368 2.76053C8.93421 2.85 8.82982 2.89474 8.71053 2.89474C8.59123 2.89474 8.48684 2.85 8.39737 2.76053ZM11.3388 13.2401C11.0779 12.9792 10.9474 12.6623 10.9474 12.2895C10.9474 11.9167 11.0779 11.5998 11.3388 11.3388C11.5998 11.0779 11.9167 10.9474 12.2895 10.9474C12.6623 10.9474 12.9792 11.0779 13.2401 11.3388C13.5011 11.5998 13.6316 11.9167 13.6316 12.2895C13.6316 12.6623 13.5011 12.9792 13.2401 13.2401C12.9792 13.5011 12.6623 13.6316 12.2895 13.6316C11.9167 13.6316 11.5998 13.5011 11.3388 13.2401ZM11.3388 9.66118C11.0779 9.40022 10.9474 9.08333 10.9474 8.71053C10.9474 8.33772 11.0779 8.02083 11.3388 7.75987C11.5998 7.4989 11.9167 7.36842 12.2895 7.36842C12.6623 7.36842 12.9792 7.4989 13.2401 7.75987C13.5011 8.02083 13.6316 8.33772 13.6316 8.71053C13.6316 9.08333 13.5011 9.40022 13.2401 9.66118C12.9792 9.92215 12.6623 10.0526 12.2895 10.0526C11.9167 10.0526 11.5998 9.92215 11.3388 9.66118ZM11.652 16.5059C11.4805 16.3344 11.3947 16.1219 11.3947 15.8684C11.3947 15.6149 11.4805 15.4024 11.652 15.2309C11.8235 15.0594 12.036 14.9737 12.2895 14.9737C12.543 14.9737 12.7555 15.0594 12.927 15.2309C13.0985 15.4024 13.1842 15.6149 13.1842 15.8684C13.1842 16.1219 13.0985 16.3344 12.927 16.5059C12.7555 16.6774 12.543 16.7632 12.2895 16.7632C12.036 16.7632 11.8235 16.6774 11.652 16.5059ZM11.652 5.76908C11.4805 5.59759 11.3947 5.38509 11.3947 5.13158C11.3947 4.87807 11.4805 4.66557 11.652 4.49408C11.8235 4.32259 12.036 4.23684 12.2895 4.23684C12.543 4.23684 12.7555 4.32259 12.927 4.49408C13.0985 4.66557 13.1842 4.87807 13.1842 5.13158C13.1842 5.38509 13.0985 5.59759 12.927 5.76908C12.7555 5.94057 12.543 6.02632 12.2895 6.02632C12.036 6.02632 11.8235 5.94057 11.652 5.76908ZM11.9763 18.8658C11.8868 18.7763 11.8421 18.6719 11.8421 18.5526C11.8421 18.4333 11.8868 18.3289 11.9763 18.2395C12.0658 18.15 12.1702 18.1053 12.2895 18.1053C12.4088 18.1053 12.5132 18.15 12.6026 18.2395C12.6921 18.3289 12.7368 18.4333 12.7368 18.5526C12.7368 18.6719 12.6921 18.7763 12.6026 18.8658C12.5132 18.9553 12.4088 19 12.2895 19C12.1702 19 12.0658 18.9553 11.9763 18.8658ZM11.9763 2.76053C11.8868 2.67105 11.8421 2.56667 11.8421 2.44737C11.8421 2.32807 11.8868 2.22368 11.9763 2.13421C12.0658 2.04474 12.1702 2 12.2895 2C12.4088 2 12.5132 2.04474 12.6026 2.13421C12.6921 2.22368 12.7368 2.32807 12.7368 2.44737C12.7368 2.56667 12.6921 2.67105 12.6026 2.76053C12.5132 2.85 12.4088 2.89474 12.2895 2.89474C12.1702 2.89474 12.0658 2.85 11.9763 2.76053ZM15.2309 16.5059C15.0594 16.3344 14.9737 16.1219 14.9737 15.8684C14.9737 15.6149 15.0594 15.4024 15.2309 15.2309C15.4024 15.0594 15.6149 14.9737 15.8684 14.9737C16.1219 14.9737 16.3344 15.0594 16.5059 15.2309C16.6774 15.4024 16.7632 15.6149 16.7632 15.8684C16.7632 16.1219 16.6774 16.3344 16.5059 16.5059C16.3344 16.6774 16.1219 16.7632 15.8684 16.7632C15.6149 16.7632 15.4024 16.6774 15.2309 16.5059ZM15.2309 12.927C15.0594 12.7555 14.9737 12.543 14.9737 12.2895C14.9737 12.036 15.0594 11.8235 15.2309 11.652C15.4024 11.4805 15.6149 11.3947 15.8684 11.3947C16.1219 11.3947 16.3344 11.4805 16.5059 11.652C16.6774 11.8235 16.7632 12.036 16.7632 12.2895C16.7632 12.543 16.6774 12.7555 16.5059 12.927C16.3344 13.0985 16.1219 13.1842 15.8684 13.1842C15.6149 13.1842 15.4024 13.0985 15.2309 12.927ZM15.2309 9.34803C15.0594 9.17654 14.9737 8.96404 14.9737 8.71053C14.9737 8.45702 15.0594 8.24452 15.2309 8.07303C15.4024 7.90154 15.6149 7.81579 15.8684 7.81579C16.1219 7.81579 16.3344 7.90154 16.5059 8.07303C16.6774 8.24452 16.7632 8.45702 16.7632 8.71053C16.7632 8.96404 16.6774 9.17654 16.5059 9.34803C16.3344 9.51952 16.1219 9.60526 15.8684 9.60526C15.6149 9.60526 15.4024 9.51952 15.2309 9.34803ZM15.2309 5.76908C15.0594 5.59759 14.9737 5.38509 14.9737 5.13158C14.9737 4.87807 15.0594 4.66557 15.2309 4.49408C15.4024 4.32259 15.6149 4.23684 15.8684 4.23684C16.1219 4.23684 16.3344 4.32259 16.5059 4.49408C16.6774 4.66557 16.7632 4.87807 16.7632 5.13158C16.7632 5.38509 16.6774 5.59759 16.5059 5.76908C16.3344 5.94057 16.1219 6.02632 15.8684 6.02632C15.6149 6.02632 15.4024 5.94057 15.2309 5.76908ZM18.2395 12.6026C18.15 12.5132 18.1053 12.4088 18.1053 12.2895C18.1053 12.1702 18.15 12.0658 18.2395 11.9763C18.3289 11.8868 18.4333 11.8421 18.5526 11.8421C18.6719 11.8421 18.7763 11.8868 18.8658 11.9763C18.9553 12.0658 19 12.1702 19 12.2895C19 12.4088 18.9553 12.5132 18.8658 12.6026C18.7763 12.6921 18.6719 12.7368 18.5526 12.7368C18.4333 12.7368 18.3289 12.6921 18.2395 12.6026ZM18.2395 9.02368C18.15 8.93421 18.1053 8.82982 18.1053 8.71053C18.1053 8.59123 18.15 8.48684 18.2395 8.39737C18.3289 8.30789 18.4333 8.26316 18.5526 8.26316C18.6719 8.26316 18.7763 8.30789 18.8658 8.39737C18.9553 8.48684 19 8.59123 19 8.71053C19 8.82982 18.9553 8.93421 18.8658 9.02368C18.7763 9.11316 18.6719 9.1579 18.5526 9.1579C18.4333 9.1579 18.3289 9.11316 18.2395 9.02368Z" fill="#C89968"/>
</svg>
