<svg width="21" height="23" viewBox="0 0 21 23" fill="none" xmlns="http://www.w3.org/2000/svg">
<path d="M14.25 9.25C14.25 10.3109 13.8286 11.3283 13.0784 12.0784C12.3283 12.8286 11.3109 13.25 10.25 13.25C9.18913 13.25 8.17172 12.8286 7.42157 12.0784C6.67143 11.3283 6.25 10.3109 6.25 9.25" stroke="#C89968" stroke-width="2.5" stroke-linecap="round" stroke-linejoin="round"/>
<path d="M1.25 5.25H19.25" stroke="#C89968" stroke-width="2.5" stroke-linecap="round" stroke-linejoin="round"/>
<path d="M1.65 4.717C1.39036 5.06319 1.25 5.48426 1.25 5.917V19.25C1.25 19.7804 1.46071 20.2891 1.83579 20.6642C2.21086 21.0393 2.71957 21.25 3.25 21.25H17.25C17.7804 21.25 18.2891 21.0393 18.6642 20.6642C19.0393 20.2891 19.25 19.7804 19.25 19.25V5.917C19.25 5.48426 19.1096 5.06319 18.85 4.717L16.85 2.05C16.6637 1.80161 16.4221 1.6 16.1444 1.46115C15.8667 1.32229 15.5605 1.25 15.25 1.25H5.25C4.93951 1.25 4.63328 1.32229 4.35557 1.46115C4.07786 1.6 3.83629 1.80161 3.65 2.05L1.65 4.717Z" stroke="#C89968" stroke-width="2.5" stroke-linecap="round" stroke-linejoin="round"/>
</svg>
