<svg width="20" height="20" viewBox="0 0 20 20" fill="none" xmlns="http://www.w3.org/2000/svg">
<path d="M10.5 20C9.32417 20 8.21917 19.7769 7.185 19.3306C6.15083 18.8844 5.25125 18.2787 4.48625 17.5137C3.72125 16.7487 3.11562 15.8492 2.66937 14.815C2.22313 13.7808 2 12.6758 2 11.5C2 10.3242 2.22313 9.21917 2.66937 8.185C3.11562 7.15083 3.72125 6.25125 4.48625 5.48625C5.25125 4.72125 6.15083 4.11562 7.185 3.66937C8.21917 3.22313 9.32417 3 10.5 3C11.6758 3 12.7808 3.22313 13.815 3.66937C14.8492 4.11562 15.7487 4.72125 16.5137 5.48625C17.2787 6.25125 17.8844 7.15083 18.3306 8.185C18.7769 9.21917 19 10.3242 19 11.5C19 12.6758 18.7769 13.7808 18.3306 14.815C17.8844 15.8492 17.2787 16.7487 16.5137 17.5137C15.7487 18.2787 14.8492 18.8844 13.815 19.3306C12.7808 19.7769 11.6758 20 10.5 20ZM10.5 18.3C12.3983 18.3 14.0062 17.6412 15.3237 16.3237C16.6412 15.0062 17.3 13.3983 17.3 11.5C17.3 9.60167 16.6412 7.99375 15.3237 6.67625C14.0062 5.35875 12.3983 4.7 10.5 4.7C8.60167 4.7 6.99375 5.35875 5.67625 6.67625C4.35875 7.99375 3.7 9.60167 3.7 11.5C3.7 13.3983 4.35875 15.0062 5.67625 16.3237C6.99375 17.6412 8.60167 18.3 10.5 18.3Z" fill="#C89968"/>
</svg>
