<svg width="9" height="9" viewBox="0 0 9 9" fill="none" xmlns="http://www.w3.org/2000/svg">
<path d="M4.01327 0.399873C4.12225 -0.133292 4.88404 -0.133294 4.99302 0.399871L5.54009 3.07645C5.5802 3.27271 5.73358 3.42609 5.92983 3.4662L8.60641 4.01327C9.13958 4.12225 9.13958 4.88404 8.60642 4.99302L5.92983 5.54009C5.73358 5.5802 5.5802 5.73358 5.54009 5.92983L4.99302 8.60641C4.88404 9.13958 4.12225 9.13958 4.01327 8.60642L3.4662 5.92983C3.42609 5.73358 3.27271 5.5802 3.07645 5.54009L0.399873 4.99302C-0.133292 4.88404 -0.133294 4.12225 0.399871 4.01327L3.07645 3.4662C3.27271 3.42609 3.42609 3.27271 3.4662 3.07645L4.01327 0.399873Z" fill="white"/>
</svg>
