<svg width="24" height="24" viewBox="0 0 24 24" fill="none" xmlns="http://www.w3.org/2000/svg">
<path d="M16 9.85291C16 10.8982 15.5786 11.9006 14.8284 12.6397C14.0783 13.3789 13.0609 13.7941 12 13.7941C10.9391 13.7941 9.92172 13.3789 9.17157 12.6397C8.42143 11.9006 8 10.8982 8 9.85291" stroke="#8B7355" stroke-opacity="0.6" stroke-linecap="round" stroke-linejoin="round"/>
<path d="M3.103 5.94531H20.897" stroke="#B9AA98" stroke-linecap="round" stroke-linejoin="round"/>
<path d="M3.4 5.3866C3.14036 5.7277 3 6.14257 3 6.56895V19.7059C3 20.2285 3.21071 20.7297 3.58579 21.0993C3.96086 21.4688 4.46957 21.6765 5 21.6765H19C19.5304 21.6765 20.0391 21.4688 20.4142 21.0993C20.7893 20.7297 21 20.2285 21 19.7059V6.56895C21 6.14257 20.8596 5.7277 20.6 5.3866L18.6 2.75882C18.4137 2.51408 18.1721 2.31544 17.8944 2.17862C17.6167 2.04181 17.3105 1.97058 17 1.97058H7C6.68951 1.97058 6.38328 2.04181 6.10557 2.17862C5.82786 2.31544 5.58629 2.51408 5.4 2.75882L3.4 5.3866Z" stroke="#B9AA98" stroke-linecap="round" stroke-linejoin="round"/>
</svg>
