<svg width="17" height="17" viewBox="0 0 17 17" fill="none" xmlns="http://www.w3.org/2000/svg">
<path d="M5.185 16.3306C4.15083 15.8844 3.25125 15.2788 2.48625 14.5138C1.72125 13.7487 1.11563 12.8492 0.669375 11.815C0.223125 10.7808 0 9.67583 0 8.5C0 7.32417 0.223125 6.21917 0.669375 5.185C1.11563 4.15083 1.72125 3.25125 2.48625 2.48625C3.25125 1.72125 4.15083 1.11563 5.185 0.669375C6.21917 0.223125 7.32417 0 8.5 0C9.67583 0 10.7808 0.223125 11.815 0.669375C12.8492 1.11563 13.7487 1.72125 14.5138 2.48625C15.2788 3.25125 15.8844 4.15083 16.3306 5.185C16.7769 6.21917 17 7.32417 17 8.5C17 9.67583 16.7769 10.7808 16.3306 11.815C15.8844 12.8492 15.2788 13.7487 14.5138 14.5138C13.7487 15.2788 12.8492 15.8844 11.815 16.3306C10.7808 16.7769 9.67583 17 8.5 17C7.32417 17 6.21917 16.7769 5.185 16.3306ZM9.35 15.2362C11.0358 15.0238 12.449 14.2835 13.5894 13.0156C14.7298 11.7477 15.3 10.2425 15.3 8.5C15.3 6.7575 14.7298 5.25229 13.5894 3.98438C12.449 2.71646 11.0358 1.97625 9.35 1.76375V15.2362Z" fill="#C89968"/>
</svg>
