<svg width="19" height="19" viewBox="0 0 19 19" fill="none" xmlns="http://www.w3.org/2000/svg">
<path d="M3.48828 14.3242C4.37891 13.6975 5.33138 13.2316 6.3457 12.9264C7.36003 12.6213 8.41146 12.4688 9.5 12.4688C10.5885 12.4688 11.64 12.6213 12.6543 12.9264C13.6686 13.2316 14.6211 13.6975 15.5117 14.3242C16.089 13.648 16.5178 12.8976 16.7982 12.0729C17.0786 11.2483 17.2188 10.3906 17.2188 9.5C17.2188 7.3559 16.4683 5.53342 14.9674 4.03255C13.4666 2.53168 11.6441 1.78125 9.5 1.78125C7.3559 1.78125 5.53342 2.53168 4.03255 4.03255C2.53168 5.53342 1.78125 7.3559 1.78125 9.5C1.78125 10.3906 1.92144 11.2483 2.20182 12.0729C2.4822 12.8976 2.91102 13.648 3.48828 14.3242ZM6.97656 10.2422C6.28385 9.54948 5.9375 8.70833 5.9375 7.71875C5.9375 6.72917 6.28385 5.88802 6.97656 5.19531C7.66927 4.5026 8.51042 4.15625 9.5 4.15625C10.4896 4.15625 11.3307 4.5026 12.0234 5.19531C12.7161 5.88802 13.0625 6.72917 13.0625 7.71875C13.0625 8.70833 12.7161 9.54948 12.0234 10.2422C11.3307 10.9349 10.4896 11.2812 9.5 11.2812C8.51042 11.2812 7.66927 10.9349 6.97656 10.2422ZM9.5 19C8.19705 19 6.96832 18.7526 5.8138 18.2578C4.65929 17.763 3.64909 17.0827 2.7832 16.2168C1.91732 15.3509 1.23698 14.3407 0.742188 13.1862C0.247396 12.0317 0 10.803 0 9.5C0 8.18056 0.247396 6.9477 0.742188 5.80143C1.23698 4.65517 1.91732 3.64909 2.7832 2.7832C3.64909 1.91732 4.65929 1.23698 5.8138 0.742188C6.96832 0.247396 8.19705 0 9.5 0C10.8194 0 12.0523 0.247396 13.1986 0.742188C14.3448 1.23698 15.3509 1.91732 16.2168 2.7832C17.0827 3.64909 17.763 4.65517 18.2578 5.80143C18.7526 6.9477 19 8.18056 19 9.5C19 10.803 18.7526 12.0317 18.2578 13.1862C17.763 14.3407 17.0827 15.3509 16.2168 16.2168C15.3509 17.0827 14.3448 17.763 13.1986 18.2578C12.0523 18.7526 10.8194 19 9.5 19ZM11.974 16.8105C12.7656 16.5384 13.5078 16.1385 14.2005 15.6107C13.4913 15.1654 12.7409 14.8273 11.9492 14.5964C11.1576 14.3655 10.3411 14.25 9.5 14.25C8.65885 14.25 7.83833 14.3613 7.03841 14.584C6.2385 14.8066 5.49219 15.1489 4.79948 15.6107C5.49219 16.1385 6.23438 16.5384 7.02604 16.8105C7.81771 17.0827 8.64236 17.2188 9.5 17.2188C10.3576 17.2188 11.1823 17.0827 11.974 16.8105ZM10.7617 8.98047C11.1081 8.63412 11.2812 8.21354 11.2812 7.71875C11.2812 7.22396 11.1081 6.80339 10.7617 6.45703C10.4154 6.11068 9.99479 5.9375 9.5 5.9375C9.00521 5.9375 8.58464 6.11068 8.23828 6.45703C7.89193 6.80339 7.71875 7.22396 7.71875 7.71875C7.71875 8.21354 7.89193 8.63412 8.23828 8.98047C8.58464 9.32682 9.00521 9.5 9.5 9.5C9.99479 9.5 10.4154 9.32682 10.7617 8.98047Z" fill="#C89968"/>
</svg>
